<svg width="1622" height="1622" viewBox="0 0 1622 1622" fill="none" xmlns="http://www.w3.org/2000/svg">
<path d="M1611.4 811C1611.4 1252.3 1252.4 1611.3 811.099 1611.3C369.799 1611.3 10.6992 1252.3 10.6992 811C10.6992 369.7 369.799 10.5996 811.099 10.5996C1252.4 10.5996 1611.4 369.6 1611.4 811Z" fill="#113051"/>
<path d="M1020.8 1043.6V1128.4C1015.8 1142.5 994.601 1172.5 985.801 1184.8V1078.6L1020.8 1043.6Z" fill="#A6A6A6"/>
<path d="M636.599 1078.9V1185.2C627.899 1173.3 606.299 1142.6 601.199 1128.3V1043.5L636.599 1078.9Z" fill="#A6A6A6"/>
<path d="M652.602 1110.7C666.702 1122.2 679.802 1132.1 692.002 1140.7V1242C675.602 1228.3 661.602 1216 652.602 1207.9V1110.6V1110.7Z" fill="#E8E8E8"/>
<path d="M707.898 1151.6C722.598 1161.3 735.798 1168.8 747.298 1174.7V1285.1C733.898 1275.5 720.498 1265.2 707.898 1255.2V1151.7V1151.6Z" fill="#E8E8E8"/>
<path d="M763.199 1182.2C782.199 1190.3 795.399 1193.3 802.999 1194.3V1319C790.699 1313.4 777.099 1305.3 763.199 1296.1V1182.2Z" fill="#E8E8E8"/>
<path d="M819 1194.3C826.6 1193.3 839.8 1190.4 858.7 1182.2V1296.1C844.8 1305.3 831.3 1313.3 819 1318.9V1194.2V1194.3Z" fill="#E8E8E8"/>
<path d="M874.699 1174.8C886.199 1168.9 899.299 1161.5 914.099 1151.8V1255.2C901.499 1265.3 888.099 1275.6 874.699 1285.2V1174.8Z" fill="#E8E8E8"/>
<path d="M969.8 1110.5V1207.7C960.8 1215.8 946.7 1228.3 930 1242.2V1140.9C942.3 1132.2 955.5 1122.2 969.8 1110.5Z" fill="#E8E8E8"/>
<path d="M837.098 1511.7L856.098 1561.3H765.898L784.898 1511.7H837.098Z" fill="#A6A6A6"/>
<path d="M785.299 1482.1C777.799 1468.5 752.699 1436.6 752.699 1436.6L810.999 1367L869.299 1436.6C869.299 1436.6 844.099 1468.5 836.699 1482.1H785.199H785.299Z" fill="#A6A6A6"/>
<path d="M757.402 1488.6L734.602 1559.7L734.202 1561.2L721.502 1558.2L695.302 1552.1L676.602 1515.4L732.002 1462.1L757.402 1488.6Z" fill="#DFAE73"/>
<path d="M476.899 1261.9C468.899 1272.9 445.599 1348.7 431.699 1397.8C448.699 1409.4 507.499 1449.3 537.199 1463.2L530.399 1477.7C494.399 1460.8 420.999 1409.9 417.899 1407.8L413.199 1404.6L414.699 1399.1C418.399 1386 451.199 1270 463.899 1252.6C476.699 1235.1 515.099 1206 516.699 1204.8L526.899 1197.1L529.299 1209.7C560.799 1370.7 650.299 1528.1 662.599 1549.2C655.599 1547.8 648.699 1546.3 641.799 1544.7C617.199 1500.6 546.399 1365.7 516.299 1225.4C504.199 1235.1 484.499 1251.5 476.799 1262L476.899 1261.9Z" fill="#AF7B48"/>
<path d="M398.301 1340.9L330.801 1372.8L376.301 1406.8L398.301 1340.9Z" fill="#AF7B48"/>
<path d="M483.799 1340.9L470.199 1383.2L505.199 1408.8L483.799 1340.9Z" fill="#AF7B48"/>
<path d="M418.002 1281.6L410.602 1303.7L314.102 1356.1V1337.9L418.002 1281.6Z" fill="#A6A6A6"/>
<path d="M588.398 606.2L613.898 592.6C613.898 592.6 614.398 626.5 643.598 630.8C672.798 635 685.498 601.6 685.498 601.6L710.298 625.9C694.998 625 691.798 628.6 691.798 628.6C629.398 676.7 588.498 606.2 588.498 606.2H588.398Z" fill="#E8E8E8"/>
<path d="M645.699 447.901L732.199 371.501V243.701C736.199 242.501 740.299 241.501 744.399 240.501C750.799 239.001 757.299 237.701 763.999 236.801V393.601L688.199 460.601V505.401C675.999 500.801 661.799 496.701 645.799 493.901V447.901H645.699Z" fill="#E8E8E8"/>
<path d="M933.902 460.601L858.102 393.601V236.801C864.702 237.801 871.302 239.001 877.702 240.501C881.802 241.501 885.802 242.601 889.902 243.701V371.501L976.401 447.901V493.901C960.401 496.701 946.202 500.901 934.002 505.501V460.601H933.902Z" fill="#E8E8E8"/>
<path d="M1008.2 592.6L1033.7 606.2C1033.7 606.2 992.798 676.7 930.398 628.6C930.398 628.6 927.198 625 911.898 625.9L936.698 601.6C936.698 601.6 949.399 635 978.599 630.8C1007.8 626.5 1008.3 592.6 1008.3 592.6H1008.2Z" fill="#E8E8E8"/>
<path d="M1056.9 745.2C1056.9 752.4 1051.1 758.3 1043.9 758.3C1036.7 758.3 1030.8 752.4 1030.8 745.2C1030.8 738 1036.7 732.1 1043.9 732.1C1051.1 732.1 1056.9 738 1056.9 745.2Z" fill="#A6A6A6"/>
<path d="M1106.8 774.2C1104.9 784.2 1102.9 794.1 1101 804.1C1100 809 1099.1 813.9 1098.3 818.7C1097.4 823.7 1096.5 828.6 1095.7 833.6C1091.7 858.5 1089.4 883.4 1082.7 907.9C1078.5 923.3 1073.1 939.1 1064.2 952.6C1061.2 957.2 1057.6 961.4 1053.8 965.4C1052.8 966.5 1051.8 967.4 1050.8 968.4C1047.8 971.4 1044.7 974.2 1041.8 977.1V846.8L1106.8 774V774.2Z" fill="#DFAE73"/>
<path d="M1127.9 656C1127.5 659.6 1127.1 663.3 1126.6 666.9C1125.7 674.1 1124.5 681.3 1123.2 688.4C1122.9 690 1122.6 691.6 1122.3 693.2C1120.1 705 1117.7 716.7 1115.4 728.4C1114.7 731.8 1114 735.1 1113.4 738.5C1113 740.3 1112.7 742.2 1112.3 744L1025.8 841V993.1C1015.3 1003.5 1004.7 1013.6 993.699 1023.4V841.5C1036.3 827.3 1047.8 788.8 1050.8 773.4C1063.5 770.3 1072.8 758.8 1072.8 745.3C1072.8 731.8 1070.4 732.1 1066.4 727.1C1081 714 1093.4 700.8 1103.7 688.5C1113.5 676.6 1121.6 665.6 1127.9 656.1V656Z" fill="#E8E8E8"/>
<path d="M515.198 774.199L580.098 846.999V977.199C577.098 974.299 574.098 971.499 571.098 968.499C570.198 967.599 569.298 966.799 568.498 965.899C567.898 965.299 567.198 964.599 566.598 963.899C565.598 962.899 564.698 961.899 563.798 960.899C562.998 959.999 562.298 958.999 561.498 958.099C561.298 957.899 561.198 957.799 561.098 957.699C560.998 957.499 560.798 957.399 560.698 957.199C560.198 956.599 559.698 955.899 559.198 955.199C558.598 954.399 557.998 953.599 557.398 952.699C548.598 939.199 543.198 923.399 538.998 907.999C532.298 883.499 529.998 858.599 525.998 833.699C525.198 828.699 524.398 823.799 523.398 818.799C522.498 813.899 521.598 809.099 520.698 804.199C518.798 794.199 516.798 784.299 514.898 774.299L515.198 774.199Z" fill="#DFAE73"/>
<path d="M578.202 758.3C571.002 758.3 565.102 752.4 565.102 745.2C565.102 738 571.002 732.1 578.202 732.1C585.402 732.1 591.302 738 591.302 745.2C591.302 752.4 585.402 758.3 578.202 758.3Z" fill="#A6A6A6"/>
<path d="M571.199 773.301C558.499 770.201 549.099 758.701 549.099 745.201C549.099 731.701 551.499 732.001 555.499 727.001C540.899 713.901 528.499 700.701 518.199 688.401C535.899 787.101 605.299 837.301 605.299 837.301C605.299 837.301 611.099 893.701 625.999 942.101C626.599 944.301 627.399 946.501 628.199 948.601V841.301C585.599 827.101 574.099 788.601 571.099 773.201L571.199 773.301ZM571.199 773.301C558.499 770.201 549.099 758.701 549.099 745.201C549.099 731.701 551.499 732.001 555.499 727.001C540.899 713.901 528.499 700.701 518.199 688.401C508.399 676.501 500.299 665.501 493.999 656.001C494.299 659.101 494.699 662.301 495.099 665.501C495.099 666.001 495.299 666.501 495.299 666.901C495.799 670.501 496.299 674.101 496.799 677.601C497.299 681.201 497.999 684.801 498.599 688.301C498.899 689.801 499.199 691.501 499.499 693.001V693.201C500.599 699.001 501.699 704.801 502.899 710.601C504.099 716.501 505.199 722.401 506.399 728.201C507.099 731.601 507.799 734.901 508.399 738.301C508.799 740.101 509.099 742.001 509.499 743.801L595.999 840.801V992.801C606.499 1003.2 617.199 1013.4 628.199 1023.2V841.301C585.599 827.101 574.099 788.601 571.099 773.201L571.199 773.301ZM810.999 445.201C794.799 445.201 781.599 458.401 781.599 474.601C781.599 490.801 794.799 504.101 810.999 504.101C827.199 504.101 840.399 490.901 840.399 474.601C840.399 458.301 827.199 445.201 810.999 445.201ZM869.699 939.701C854.399 939.101 838.999 939.101 826.899 940.301C826.899 940.301 818.899 944.701 810.999 945.001C803.099 944.701 795.099 940.301 795.099 940.301C782.999 939.101 767.699 939.101 752.299 939.701C747.399 962.601 781.299 976.401 790.399 975.501C799.699 974.601 810.899 974.401 810.899 974.401C810.899 974.401 822.199 974.601 831.499 975.501C840.599 976.401 874.499 962.601 869.599 939.701H869.699ZM869.699 939.701C854.399 939.101 838.999 939.101 826.899 940.301C826.899 940.301 818.899 944.701 810.999 945.001C803.099 944.701 795.099 940.301 795.099 940.301C782.999 939.101 767.699 939.101 752.299 939.701C747.399 962.601 781.299 976.401 790.399 975.501C799.699 974.601 810.899 974.401 810.899 974.401C810.899 974.401 822.199 974.601 831.499 975.501C840.599 976.401 874.499 962.601 869.599 939.701H869.699ZM1126.7 566.001C1123.6 535.701 1125.5 504.701 1115.2 475.201C1113.8 471.101 1112.2 466.901 1110.6 462.801C1109.1 458.701 1107.4 454.601 1105.7 450.501C1105.5 450.101 1105.4 449.701 1105.2 449.301C1104.6 447.601 1103.8 445.901 1103.1 444.201C1103 444.001 1102.9 443.701 1102.8 443.501C1101.6 440.701 1100.4 438.001 1099.2 435.301C1099 435.001 1098.9 434.701 1098.8 434.401C1098 432.601 1097.2 430.901 1096.4 429.201C1096.2 428.701 1096 428.301 1095.8 427.901C1093.8 423.601 1091.6 419.301 1089.4 415.001C1089.4 414.901 1089.3 414.701 1089.2 414.601C1087.8 411.901 1086.3 409.201 1084.8 406.501C1083.1 403.401 1081.3 400.201 1079.5 397.101C1078.6 395.601 1077.7 394.001 1076.8 392.501C1056.6 359.001 1031.5 328.301 1001.5 303.101C973.199 279.301 940.699 261.001 905.899 248.901V364.401L992.399 440.801V491.701C994.399 491.501 996.199 491.201 998.199 491.001C1012.7 489.701 1025.8 491.101 1037.5 494.101V411.701L958.899 342.301C957.399 342.801 955.899 343.101 954.299 343.101C945.699 343.101 938.799 336.101 938.799 327.601C938.799 319.101 945.699 312.101 954.299 312.101C962.899 312.101 969.799 319.001 969.799 327.601C969.799 336.201 969.599 329.501 969.499 330.401L1053.4 404.501V499.501C1073.3 508.101 1088.3 521.101 1098.3 532.201C1108.5 543.401 1113.5 552.501 1113.5 552.501L1104.9 551.001C1103.7 550.001 1102.6 549.001 1101.4 548.101C1020.9 480.501 967.699 545.101 967.699 545.101C1020 531.301 1050.7 575.601 1056.4 584.701C1080.2 588.301 1095.9 579.001 1104.7 570.801C1110.7 565.301 1113.5 560.301 1113.5 560.301C1113.7 567.401 1110.6 573.501 1105.6 579.001C1091.2 594.801 1060.7 606.501 1043.1 628.501C1019.3 658.201 996.899 659.301 996.899 659.301C947.099 658.801 943.199 644.801 930.599 639.601C917.899 634.401 906.399 638.401 897.799 635.301C889.199 632.101 891.799 625.001 891.799 625.001C946.999 544.201 995.499 566.801 1044.2 581.901C1046.5 582.601 1048.8 583.201 1051 583.701C967.999 493.501 878.799 617.201 874.799 622.901L906.499 567.701C859.999 570.801 852.199 608.101 852.199 608.101V636.601L938.499 724.501V770.801C942.999 773.501 946.099 778.401 946.099 784.001C946.099 792.601 939.099 799.501 930.599 799.501C922.099 799.501 915.099 792.501 915.099 784.001C915.099 775.501 918.099 773.501 922.699 770.801V731.001L852.399 659.401V684.201H839.499V608.801C841.899 567.401 878.199 537.201 878.199 537.201C878.199 537.201 891.999 524.501 917.999 512.301V467.901L842.199 400.901V59.3008H819.099V430.201C840.299 434.001 856.499 452.501 856.499 474.801C856.499 497.101 840.299 515.601 819.099 519.401V752.201H803.099V519.501C781.899 515.701 765.699 497.201 765.699 474.801C765.699 452.401 781.899 434.001 803.099 430.201V59.3008H779.999V400.901L704.199 467.901V512.301C730.199 524.501 743.999 537.201 743.999 537.201C743.999 537.201 780.299 567.401 782.699 608.801V684.201H769.799V659.401L699.499 731.001V770.801C703.999 773.501 707.099 778.401 707.099 784.001C707.099 792.601 700.099 799.501 691.599 799.501C683.099 799.501 676.099 792.501 676.099 784.001C676.099 775.501 679.099 773.501 683.699 770.801V724.501L763.099 643.601L769.999 636.601V608.101C769.999 608.101 762.199 570.801 715.699 567.701L743.399 615.801L747.399 622.801C743.299 617.101 654.099 493.401 571.199 583.601C573.399 583.101 575.699 582.501 577.999 581.801C626.699 566.701 675.299 544.001 730.399 624.901C730.399 624.901 733.099 632.001 724.399 635.201C715.799 638.301 704.199 634.301 691.599 639.501C678.899 644.701 675.099 658.701 625.299 659.201C625.299 659.201 602.899 658.101 579.099 628.401C561.399 606.401 530.999 594.801 516.599 578.901C514.399 576.601 512.699 574.101 511.399 571.501C509.599 568.001 508.599 564.301 508.699 560.301C508.699 560.301 511.499 565.301 517.499 570.801C526.299 579.001 541.999 588.301 565.799 584.701C571.499 575.601 602.199 531.301 654.499 545.101C654.499 545.101 601.299 480.401 520.799 548.101C519.599 549.001 518.499 550.001 517.299 551.001L508.699 552.501C508.699 552.501 508.799 552.301 508.999 552.001C510.199 550.001 515.199 541.901 523.899 532.301C533.899 521.201 548.799 508.201 568.799 499.601V404.601L652.799 330.501C652.599 329.501 652.499 328.601 652.499 327.701C652.499 319.101 659.499 312.201 667.999 312.201C676.499 312.201 683.499 319.101 683.499 327.701C683.499 336.301 676.599 343.201 667.999 343.201C659.399 343.201 664.899 342.901 663.399 342.401L584.799 411.801V494.201C596.599 491.201 609.699 489.801 624.199 491.101C626.199 491.301 628.099 491.601 630.099 491.801V440.901L716.599 364.501V249.001C681.799 261.101 649.399 279.401 620.999 303.201C590.999 328.401 565.799 359.101 545.599 392.601C544.699 394.101 543.799 395.601 542.999 397.101C541.199 400.201 539.399 403.301 537.699 406.501C536.199 409.201 534.699 411.901 533.299 414.601C533.099 414.901 532.999 415.101 532.899 415.401C531.399 418.301 529.999 421.101 528.499 424.101C527.199 426.701 525.999 429.301 524.799 431.901C524.599 432.401 524.299 432.901 524.099 433.401C523.999 433.601 523.899 433.801 523.799 434.001C522.699 436.301 521.699 438.601 520.699 440.901C520.399 441.501 520.199 442.201 519.899 442.801C519.699 443.001 519.599 443.301 519.499 443.501C517.999 447.001 516.599 450.401 515.199 453.901C513.799 457.401 512.399 461.001 511.099 464.501C509.799 468.101 508.499 471.601 507.199 475.201C496.899 504.701 498.799 535.801 495.699 566.001C493.799 584.301 492.499 603.001 492.599 621.601C496.299 628.601 503.599 641.601 515.099 657.701C527.799 675.401 545.599 696.701 569.499 717.701C572.399 716.701 575.399 716.201 578.599 716.201C594.599 716.201 607.599 729.201 607.599 745.201C607.599 761.201 599.199 768.901 587.699 772.701C590.599 786.801 601.199 817.901 638.699 827.701L644.699 829.201V1036.9C647.599 1039.3 650.499 1041.6 653.499 1044C671.799 1058.3 690.299 1072.5 709.099 1086.2C723.499 1096.7 738.399 1108.6 754.699 1115.9C782.699 1128.6 811.399 1128.3 811.399 1128.3C811.399 1128.3 840.099 1128.6 868.099 1115.9C884.399 1108.6 899.299 1096.6 913.699 1086.2C932.499 1072.5 950.999 1058.3 969.299 1044C972.299 1041.7 975.299 1039.3 978.099 1036.9V829.201L984.099 827.701C1021.3 817.901 1032.1 786.701 1035 772.701C1023.5 768.901 1015.1 758.001 1015.1 745.201C1015.1 732.401 1028.1 716.201 1044.1 716.201C1060.1 716.201 1050.3 716.701 1053.2 717.701C1077.1 696.601 1094.9 675.401 1107.6 657.701C1119.2 641.701 1126.4 628.601 1130.1 621.601C1130.1 603.001 1128.9 584.401 1127 566.001H1126.7ZM640.099 721.101C632.299 721.101 626.099 714.801 626.099 707.101C626.099 699.401 632.399 693.101 640.099 693.101C647.799 693.101 654.099 699.401 654.099 707.101C654.099 714.801 647.799 721.101 640.099 721.101ZM750.099 747.201L739.599 779.001L737.299 785.901C734.999 806.701 755.199 808.301 763.099 806.001C770.999 803.801 785.299 806.901 785.299 806.901C801.899 813.701 810.499 813.801 810.999 813.801C811.499 813.801 820.099 813.701 836.699 806.901C836.699 806.901 850.999 803.801 858.899 806.001C866.799 808.301 886.999 806.701 884.699 785.901L882.499 779.101L871.999 747.201C873.599 749.701 903.699 796.201 894.199 811.101C884.399 826.401 871.799 827.701 864.599 827.401C862.299 827.301 856.399 827.001 849.399 827.101C835.399 827.301 817.399 829.401 816.399 838.901L810.999 861.301L805.599 838.901C804.599 829.401 786.599 827.301 772.599 827.101C765.599 826.901 759.699 827.301 757.399 827.401C750.299 827.801 737.699 826.401 727.899 811.101C718.299 796.201 748.399 749.701 750.099 747.201ZM824.499 1003.7C824.499 1003.7 847.799 1006 864.099 1021.1H757.799C774.099 1005.9 797.399 1003.7 797.399 1003.7C768.499 995.101 747.599 974.101 746.299 972.701C749.799 974.201 753.399 975.701 756.999 977.101C766.799 980.901 776.999 984.101 787.399 986.101C796.199 987.801 804.499 987.501 813.299 988.101C830.099 989.001 847.499 984.101 863.399 977.801C867.499 976.201 871.599 974.401 875.499 972.701C874.199 974.001 853.299 995.101 824.399 1003.7H824.499ZM933.699 943.801C932.299 944.001 921.399 943.001 906.399 941.901C895.599 941.101 882.599 940.301 869.699 939.801C854.399 939.201 838.999 939.201 826.899 940.401C826.899 940.401 818.899 944.801 810.999 945.101C803.099 944.801 795.099 940.401 795.099 940.401C782.999 939.201 767.699 939.201 752.299 939.801C739.299 940.301 726.299 941.101 715.599 941.901C700.699 943.001 689.799 944.001 688.299 943.801C684.699 943.201 672.899 944.801 681.899 933.101C690.799 921.301 693.199 921.201 707.999 926.901C722.699 932.501 734.199 913.601 749.599 906.301C764.999 899.101 785.799 893.001 793.699 900.001C801.599 907.001 811.099 908.301 811.099 908.301C811.099 908.301 820.599 907.001 828.499 900.001C836.399 893.001 857.199 899.101 872.599 906.301C887.999 913.601 899.599 932.601 914.199 926.901C928.899 921.201 931.299 921.301 940.299 933.101C949.199 944.901 937.499 943.301 933.799 943.801H933.699ZM981.999 721.101C974.199 721.101 967.999 714.801 967.999 707.101C967.999 699.401 974.299 693.101 981.999 693.101C989.699 693.101 995.999 699.401 995.999 707.101C995.999 714.801 989.699 721.101 981.999 721.101ZM869.699 939.701C854.399 939.101 838.999 939.101 826.899 940.301C826.899 940.301 818.899 944.701 810.999 945.001C803.099 944.701 795.099 940.301 795.099 940.301C782.999 939.101 767.699 939.101 752.299 939.701C747.399 962.601 781.299 976.401 790.399 975.501C799.699 974.601 810.899 974.401 810.899 974.401C810.899 974.401 822.199 974.601 831.499 975.501C840.599 976.401 874.499 962.601 869.599 939.701H869.699ZM810.999 445.201C794.799 445.201 781.599 458.401 781.599 474.601C781.599 490.801 794.799 504.101 810.999 504.101C827.199 504.101 840.399 490.901 840.399 474.601C840.399 458.301 827.199 445.201 810.999 445.201Z" fill="#E8E8E8"/>
<path d="M1041.8 846.999L1106.8 774.199C1104.9 784.199 1102.9 794.099 1101 804.099C1100 808.999 1099.1 813.799 1098.3 818.699C1097.4 823.699 1096.5 828.599 1095.7 833.599C1091.7 858.499 1089.4 883.399 1082.7 907.899C1078.5 923.299 1073.1 939.099 1064.2 952.599C1061.2 957.199 1057.6 961.399 1053.8 965.399C1052.8 966.499 1051.8 967.399 1050.8 968.399C1047.8 971.399 1044.7 974.199 1041.8 977.099V846.799V846.999Z" fill="#A6A6A6"/>
<path d="M515.198 774.199L580.098 846.999V977.199C577.098 974.299 574.098 971.499 571.098 968.499C570.198 967.599 569.298 966.799 568.498 965.899C567.898 965.299 567.198 964.599 566.598 963.899C565.598 962.899 564.698 961.899 563.798 960.899C562.998 959.999 562.298 958.999 561.498 958.099C561.298 957.899 561.198 957.799 561.098 957.699C560.998 957.499 560.798 957.399 560.698 957.199C560.198 956.599 559.698 955.899 559.198 955.199C558.598 954.399 557.998 953.599 557.398 952.699C548.598 939.199 543.198 923.399 538.998 907.999C532.298 883.499 529.998 858.599 525.998 833.699C525.198 828.699 524.398 823.799 523.398 818.799C522.498 813.899 521.598 809.099 520.698 804.199C518.798 794.199 516.798 784.299 514.898 774.299L515.198 774.199Z" fill="#A6A6A6"/>
<path d="M494.098 656C493.798 653.4 493.598 650.7 493.398 648.1C493.598 650.8 493.898 653.4 494.198 656.1L494.098 656Z" fill="#AF7B48"/>
<path d="M541.298 485.5C541.298 485.5 531.498 498.4 523.698 532.1C513.498 543.4 508.498 552.4 508.498 552.4L517.098 550.9C518.298 549.9 519.398 548.9 520.598 548C519.398 554.9 518.298 562.5 517.398 570.7C511.398 565.2 508.598 560.2 508.598 560.2C508.398 567.3 511.498 573.4 516.498 578.9C514.598 598.7 513.698 622.2 514.498 649.8C514.498 652.4 514.698 655 514.898 657.6C503.398 641.6 496.098 628.6 492.398 621.5C492.398 602.9 493.598 584.3 495.498 565.9C498.598 535.6 496.698 504.6 506.998 475.1C508.298 471.5 509.598 467.9 510.898 464.4C512.198 460.9 513.598 457.3 514.998 453.8C516.398 450.3 517.798 446.8 519.298 443.4C519.398 443.1 519.498 442.9 519.698 442.7C519.998 442.1 520.198 441.4 520.498 440.8C521.498 438.5 522.498 436.2 523.598 433.9C523.698 433.7 523.798 433.5 523.898 433.3C524.098 432.8 524.398 432.2 524.598 431.8C525.798 429.2 526.998 426.6 528.298 424C529.698 421.1 531.198 418.2 532.698 415.3C532.898 415 532.998 414.8 533.098 414.5C534.498 411.8 535.998 409.1 537.498 406.4C539.198 403.3 540.998 400.1 542.798 397C563.198 437.5 541.398 485.5 541.398 485.5H541.298Z" fill="#A6A6A6"/>
<path d="M628.302 948.699V1023.4C617.302 1013.6 606.702 1003.5 596.102 992.999V840.999L509.602 743.999C509.202 742.199 508.902 740.299 508.502 738.499C507.902 735.099 507.202 731.699 506.502 728.399C505.302 722.499 504.202 716.599 503.002 710.799C501.802 704.999 500.702 699.199 499.602 693.399V693.199C499.302 691.699 499.002 689.999 498.702 688.499C498.102 684.899 497.402 681.399 496.902 677.799C496.302 674.199 495.802 670.699 495.402 667.099C495.402 666.599 495.202 666.099 495.202 665.699C494.802 662.599 494.402 659.399 494.102 656.199C500.402 665.699 508.502 676.799 518.302 688.599C536.002 787.299 605.402 837.499 605.402 837.499C605.402 837.499 611.302 893.899 626.102 942.299C626.702 944.499 627.502 946.699 628.302 948.799V948.699Z" fill="#A6A6A6"/>
<path d="M977.798 979.699V1037C974.898 1039.4 971.898 1041.7 968.998 1044.1C950.698 1058.4 932.198 1072.6 913.398 1086.3C898.998 1096.8 884.098 1108.7 867.798 1116C839.698 1128.7 811.098 1128.4 811.098 1128.4C811.098 1128.4 782.398 1128.7 754.398 1116C738.098 1108.7 723.198 1096.7 708.798 1086.3C689.998 1072.6 671.498 1058.4 653.198 1044.1C650.198 1041.8 647.198 1039.4 644.398 1037V979.699C664.998 1011.6 693.298 1036.5 699.198 1043.1C707.298 1052.1 738.598 1083.4 751.698 1099.7C764.798 1116 811.198 1114.2 811.198 1114.2C811.198 1114.2 812.698 1114.2 815.298 1114.2C826.898 1114.2 859.898 1113 870.698 1099.7C883.798 1083.4 915.098 1052.2 923.198 1043.1C929.198 1036.5 957.498 1011.6 977.998 979.699H977.798Z" fill="#A6A6A6"/>
<path d="M1103.7 688.4C1113.5 676.5 1121.6 665.5 1127.9 656C1127.5 659.6 1127.1 663.3 1126.6 666.9C1125.7 674.1 1124.5 681.3 1123.2 688.4C1122.9 690 1122.6 691.6 1122.3 693.2C1120.1 705 1117.7 716.7 1115.4 728.4C1114.7 731.8 1114 735.1 1113.4 738.5C1113 740.3 1112.7 742.2 1112.3 744L1025.8 841V993.1C1015.3 1003.5 1004.7 1013.6 993.699 1023.4V948.7C994.599 946.6 995.299 944.4 995.899 942.2C1010.7 893.8 1016.6 837.4 1016.6 837.4C1016.6 837.4 1086 787.2 1103.7 688.5V688.4Z" fill="#A6A6A6"/>
<path d="M1107.7 649.8C1108.4 622.1 1107.5 598.7 1105.7 578.9C1110.7 573.4 1113.7 567.3 1113.6 560.2C1113.6 560.2 1110.8 565.2 1104.8 570.7C1103.9 562.5 1102.8 554.9 1101.6 548C1102.8 548.9 1103.9 549.9 1105.1 550.9L1113.7 552.4C1113.7 552.4 1108.6 543.4 1098.5 532.2C1090.6 498.3 1080.9 485.5 1080.9 485.5C1080.9 485.5 1059.1 437.5 1079.5 397C1081.3 400.1 1083.1 403.2 1084.8 406.4C1086.3 409.1 1087.7 411.8 1089.2 414.5C1089.3 414.6 1089.4 414.8 1089.4 414.9C1091.6 419.2 1093.8 423.5 1095.8 427.8C1096 428.2 1096.2 428.7 1096.4 429.1C1097.3 430.8 1098 432.6 1098.8 434.3C1099 434.6 1099.1 434.9 1099.2 435.2C1100.4 437.9 1101.6 440.7 1102.8 443.4C1102.9 443.6 1103 443.9 1103.1 444.1C1103.8 445.8 1104.6 447.5 1105.2 449.2C1105.4 449.6 1105.5 450 1105.7 450.4C1107.4 454.5 1109 458.5 1110.6 462.7C1112.2 466.8 1113.7 471 1115.2 475.1C1125.5 504.6 1123.6 535.7 1126.7 565.9C1128.6 584.2 1129.9 602.9 1129.8 621.5C1126.1 628.5 1118.9 641.6 1107.3 657.6C1107.5 655 1107.6 652.4 1107.7 649.7V649.8Z" fill="#A6A6A6"/>
<path d="M853.102 59.0996V76.7996C853.102 76.7996 1070.2 80.8996 1150.4 297.5C1150.4 297.5 1132.9 95.8996 853.102 59.1996V59.0996Z" fill="#A6A6A6"/>
<path d="M853.102 82.5996V103.9C853.102 103.9 1007.1 116.6 1116.5 251.9C1116.5 251.9 1040.8 106.6 853.102 82.5996Z" fill="#A6A6A6"/>
<path d="M853.102 117.5V140.2C853.102 140.2 1030 146.4 1139.9 335.2C1139.9 335.2 1088.9 151.4 853.102 117.5Z" fill="#A6A6A6"/>
<path d="M853.102 154.199V178.299C853.102 178.299 996.902 170.499 1135 383.699C1135 383.699 1054.7 172.599 853.102 154.199Z" fill="#A6A6A6"/>
<path d="M853.102 192.9V210.6C853.102 210.6 1037.5 234.4 1143.4 450.9C1143.4 450.9 1067 222.1 853.102 192.9Z" fill="#A6A6A6"/>
<path d="M768.902 59.0996V76.7996C768.902 76.7996 551.802 80.8996 471.602 297.5C471.602 297.5 489.102 95.8996 768.902 59.1996V59.0996Z" fill="#A6A6A6"/>
<path d="M768.9 82.5996V103.9C768.9 103.9 614.9 116.6 505.5 251.9C505.5 251.9 581.2 106.6 768.9 82.5996Z" fill="#A6A6A6"/>
<path d="M768.902 117.5V140.2C768.902 140.2 592.002 146.4 482.102 335.2C482.102 335.2 533.102 151.4 768.902 117.5Z" fill="#A6A6A6"/>
<path d="M768.9 154.199V178.299C768.9 178.299 625.1 170.499 487 383.699C487 383.699 567.3 172.599 768.9 154.199Z" fill="#A6A6A6"/>
<path d="M768.902 192.9V210.6C768.902 210.6 584.502 234.4 478.602 450.9C478.602 450.9 555.002 222.1 768.902 192.9Z" fill="#A6A6A6"/>
<path d="M1220.7 542.8C1220.7 542.8 1209.8 503.2 1185.2 521.5C1179.7 525.6 1175.8 531.5 1173.9 538.1C1170.4 550.4 1163.8 574.2 1161.6 587.2C1161.6 587.2 1175.5 563.2 1205.1 548.2C1205.1 548.2 1218.3 609.9 1193.6 645.3C1193.6 645.3 1198 606 1186.8 592.5L1172.2 605.6C1172.2 605.6 1190.9 631.4 1173.2 686.4C1173.2 686.4 1165.1 710.5 1147.4 709.8L1136.2 768.4C1136.2 768.4 1154.5 764.8 1167.1 747.5C1179.7 730.2 1238.7 620.5 1220.7 542.8Z" fill="#E8E8E8"/>
<path d="M448.898 686.4C431.198 631.4 449.898 605.6 449.898 605.6L435.298 592.5C424.098 605.9 428.498 645.3 428.498 645.3C403.698 610 416.998 548.2 416.998 548.2C446.498 563.1 460.498 587.2 460.498 587.2C458.298 574.2 451.698 550.5 448.198 538.1C446.298 531.5 442.398 525.6 436.898 521.5C412.398 503.2 401.398 542.8 401.398 542.8C383.398 620.5 442.498 730.2 454.998 747.5C467.598 764.8 485.898 768.4 485.898 768.4L474.698 709.8C456.998 710.5 448.898 686.4 448.898 686.4Z" fill="#E8E8E8"/>
<path d="M493.299 648C493.499 650.7 493.799 653.3 493.999 655.9C493.699 653.2 493.399 650.6 493.199 647.9L493.299 648Z" fill="#E8E8E8"/>
<path d="M811 37.2C1017.7 37.2 1212 117.7 1358.1 263.8C1504.2 409.9 1584.7 604.3 1584.7 810.9C1584.7 1017.5 1504.2 1211.9 1358.1 1358C1212 1504.1 1017.6 1584.6 811 1584.6C604.4 1584.6 410 1504.1 263.9 1358C117.8 1211.9 37.3 1017.5 37.3 810.9C37.3 604.3 117.8 409.9 263.9 263.8C410 117.7 604.4 37.2 811 37.2ZM811 0C363.1 0 0 363.1 0 811C0 1258.9 363.1 1622 811 1622C1258.9 1622 1622 1258.9 1622 811C1622 363.1 1258.9 0 811 0Z" fill="#2D5F9F"/>
<path d="M1048.4 1140.4L1060.2 1162.6C1060.2 1162.6 1066.1 1245.4 956.599 1490.7L838.898 1349.5C838.898 1349.5 988.298 1252.6 1048.5 1140.4H1048.4Z" fill="#E8E8E8"/>
<path d="M945.398 1515.4L926.698 1552.1L900.498 1558.2L887.898 1561.2L887.398 1559.7L864.598 1488.6L889.998 1462.1L945.398 1515.4Z" fill="#E8E8E8"/>
<path d="M1208.8 1404.4L1204.1 1407.6C1201 1409.8 1127.5 1460.7 1091.6 1477.5L1084.8 1463C1114.5 1449.1 1173.4 1409.3 1190.3 1397.6C1176.4 1348.6 1153.1 1272.7 1145.1 1261.7C1137.4 1251.2 1117.8 1234.7 1105.6 1225.1C1075.5 1365.4 1004.8 1500.2 980.097 1544.4C973.197 1546 966.197 1547.5 959.297 1548.9C971.497 1527.8 1061 1370.4 1092.5 1209.4L1094.9 1196.8L1105.1 1204.5C1106.7 1205.7 1145.1 1234.8 1157.9 1252.3C1170.6 1269.7 1203.4 1385.6 1207.1 1398.8L1208.6 1404.3L1208.8 1404.4Z" fill="#A6A6A6"/>
<path d="M1223.7 1340.9L1291.2 1372.8L1245.7 1406.8L1223.7 1340.9Z" fill="#A6A6A6"/>
<path d="M1138.2 1340.9L1151.8 1383.2L1116.8 1408.8L1138.2 1340.9Z" fill="#A6A6A6"/>
<path d="M1307.9 1337.9V1356.1L1212.4 1304.2L1205.3 1282.3L1307.9 1337.9Z" fill="#A6A6A6"/>
<path d="M573.602 1140.4L561.802 1162.6C561.802 1162.6 555.902 1245.4 665.402 1490.7L783.102 1349.5C783.102 1349.5 633.702 1252.6 573.502 1140.4H573.602Z" fill="#E8E8E8"/>
<path d="M676.602 1515.4L695.302 1552.1L721.502 1558.2L734.102 1561.2L734.602 1559.7L757.402 1488.6L732.002 1462.1L676.602 1515.4Z" fill="#E8E8E8"/>
<path d="M413.199 1404.4L417.899 1407.6C420.999 1409.8 494.499 1460.7 530.399 1477.5L537.199 1463C507.499 1449.1 448.599 1409.3 431.699 1397.6C445.599 1348.6 468.899 1272.7 476.899 1261.7C484.599 1251.2 504.199 1234.7 516.399 1225.1C546.499 1365.4 617.199 1500.2 641.899 1544.4C648.799 1546 655.799 1547.5 662.699 1548.9C650.499 1527.8 560.999 1370.4 529.499 1209.4L527.099 1196.8L516.899 1204.5C515.299 1205.7 476.899 1234.8 464.099 1252.3C451.399 1269.7 418.599 1385.6 414.899 1398.8L413.399 1404.3L413.199 1404.4Z" fill="#A6A6A6"/>
<path d="M398.301 1340.9L330.801 1372.8L376.301 1406.8L398.301 1340.9Z" fill="#A6A6A6"/>
<path d="M483.799 1340.9L470.199 1383.2L505.199 1408.8L483.799 1340.9Z" fill="#A6A6A6"/>
<path d="M906.402 941.901C902.702 948.501 890.802 965.901 863.502 977.901C847.602 984.201 830.202 989.101 813.402 988.201C804.602 987.701 796.302 987.901 787.502 986.201C777.102 984.201 766.902 981.001 757.102 977.201C730.802 965.301 719.202 948.401 715.602 941.901C726.402 941.101 739.402 940.301 752.302 939.801C747.402 962.701 781.302 976.501 790.402 975.601C799.702 974.701 810.902 974.501 810.902 974.501C810.902 974.501 822.202 974.701 831.502 975.601C840.602 976.501 874.502 962.701 869.602 939.801C882.602 940.301 895.502 941.101 906.302 941.901H906.402Z" fill="#A6A6A6"/>
<path d="M849.399 827C841.499 830.4 833.599 835.5 831.799 843.3C828.599 857.3 820.599 873.4 810.999 875.2C801.499 873.4 793.399 857.3 790.299 843.3C788.499 835.4 780.599 830.3 772.699 827C786.699 827.2 804.799 829.3 805.699 838.8L811.099 861.2L816.499 838.8C817.499 829.3 835.499 827.2 849.499 827H849.399Z" fill="#A6A6A6"/>
<path d="M858.898 805.9C850.998 803.7 836.698 806.8 836.698 806.8C820.098 813.6 811.498 813.7 810.998 813.7C810.498 813.7 801.898 813.6 785.298 806.8C785.298 806.8 770.998 803.7 763.098 805.9C755.198 808.2 734.998 806.6 737.298 785.8L739.598 778.9C742.498 776.2 745.198 775 745.198 775C751.998 789.3 770.998 786.5 782.998 790.8C794.998 795.1 810.998 791.9 810.998 791.9C810.998 791.9 827.098 795 838.998 790.8C850.998 786.5 869.998 789.2 876.798 775C876.798 775 879.498 776.3 882.498 779L884.698 785.8C886.998 806.6 866.798 808.2 858.898 805.9Z" fill="#A6A6A6"/>
<path d="M654.202 545.001C601.902 531.201 571.202 575.501 565.502 584.601C541.702 588.201 526.002 578.901 517.202 570.701C511.202 565.201 508.402 560.201 508.402 560.201C508.302 564.201 509.302 568.001 511.102 571.401C502.402 562.701 502.102 556.401 502.102 556.401L508.702 551.901C508.502 552.301 508.402 552.401 508.402 552.401L517.002 550.901C518.202 549.901 519.302 548.901 520.502 548.001C601.002 480.401 654.202 545.001 654.202 545.001Z" fill="#A6A6A6"/>
<path d="M769.702 608.002V636.502L757.502 648.902C751.702 638.802 749.702 623.702 743.102 615.702L715.402 567.602C761.902 570.702 769.702 608.002 769.702 608.002Z" fill="#A6A6A6"/>
<path d="M967.898 545.001C1020.2 531.201 1050.9 575.501 1056.6 584.601C1080.4 588.201 1096.1 578.901 1104.9 570.701C1110.9 565.201 1113.7 560.201 1113.7 560.201C1113.8 564.201 1112.8 568.001 1111 571.401C1119.7 562.701 1120 556.401 1120 556.401L1113.4 551.901C1113.6 552.301 1113.7 552.401 1113.7 552.401L1105.1 550.901C1103.9 549.901 1102.8 548.901 1101.6 548.001C1021.1 480.401 967.898 545.001 967.898 545.001Z" fill="#A6A6A6"/>
<path d="M852.5 608.002V636.502L864.7 648.902C870.5 638.802 872.5 623.702 879.1 615.702L906.8 567.602C860.3 570.702 852.5 608.002 852.5 608.002Z" fill="#A6A6A6"/>
<path d="M1363.8 760.298H1192L1201.4 744.398H1363.8V760.298Z" fill="#E8E8E8"/>
<path d="M1540.5 760.299H1416.1V744.299H1539.3C1539.8 749.599 1540.2 754.899 1540.5 760.299Z" fill="#E8E8E8"/>
<path d="M1501.4 568.898H1330.2V552.898H1495.6C1497.6 558.198 1499.5 563.498 1501.4 568.898Z" fill="#E8E8E8"/>
<path d="M1375.2 443.799L1363.9 455.099L1315.9 407.099V282.199C1320 285.999 1324 289.999 1328 293.999C1329.3 295.299 1330.6 296.599 1331.8 297.899V400.499L1375.1 443.799H1375.2Z" fill="#E8E8E8"/>
<path d="M1520.5 632.699H1383.2V616.699H1516.3C1517.8 621.999 1519.2 627.299 1520.5 632.699Z" fill="#E8E8E8"/>
<path d="M1332.2 491.099V560.199H1316.2V497.699L1252.1 433.499V227.699C1257.5 231.699 1262.8 235.799 1268.1 240.099V426.799L1332.2 490.999V491.099Z" fill="#E8E8E8"/>
<path d="M1324.3 620.399C1305.5 620.399 1290.2 605.099 1290.2 586.299C1290.2 567.499 1305.5 552.199 1324.3 552.199C1343.1 552.199 1358.4 567.499 1358.4 586.299C1358.4 605.099 1343.1 620.399 1324.3 620.399ZM1324.3 568.199C1314.3 568.199 1306.1 576.299 1306.1 586.399C1306.1 596.499 1314.2 604.599 1324.3 604.599C1334.4 604.599 1342.5 596.499 1342.5 586.399C1342.5 576.299 1334.4 568.199 1324.3 568.199Z" fill="#E8E8E8"/>
<path d="M217.198 505.7C198.398 505.7 183.098 490.4 183.098 471.6C183.098 452.8 198.398 437.5 217.198 437.5C235.998 437.5 251.298 452.8 251.298 471.6C251.298 490.4 235.998 505.7 217.198 505.7ZM217.198 453.4C207.198 453.4 198.998 461.5 198.998 471.6C198.998 481.7 207.098 489.8 217.198 489.8C227.298 489.8 235.398 481.7 235.398 471.6C235.398 461.5 227.298 453.4 217.198 453.4Z" fill="#E8E8E8"/>
<path d="M300.698 621.399C281.898 621.399 266.598 606.099 266.598 587.299C266.598 568.499 281.898 553.199 300.698 553.199C319.498 553.199 334.798 568.499 334.798 587.299C334.798 606.099 319.498 621.399 300.698 621.399ZM300.698 569.099C290.698 569.099 282.498 577.199 282.498 587.299C282.498 597.399 290.598 605.499 300.698 605.499C310.798 605.499 318.898 597.399 318.898 587.299C318.898 577.199 310.798 569.099 300.698 569.099Z" fill="#E8E8E8"/>
<path d="M1388.1 502.098C1369.3 502.098 1354 486.798 1354 467.998C1354 449.198 1369.3 433.898 1388.1 433.898C1406.9 433.898 1422.2 449.198 1422.2 467.998C1422.2 486.798 1406.9 502.098 1388.1 502.098ZM1388.1 449.798C1378.1 449.798 1369.9 457.898 1369.9 467.998C1369.9 478.098 1378 486.198 1388.1 486.198C1398.2 486.198 1406.3 478.098 1406.3 467.998C1406.3 457.898 1398.2 449.798 1388.1 449.798Z" fill="#E8E8E8"/>
<path d="M1390 786.098C1371.2 786.098 1355.9 770.798 1355.9 751.998C1355.9 733.198 1371.2 717.898 1390 717.898C1408.8 717.898 1424.1 733.198 1424.1 751.998C1424.1 770.798 1408.8 786.098 1390 786.098ZM1390 733.798C1380 733.798 1371.8 741.898 1371.8 751.998C1371.8 762.098 1379.9 770.198 1390 770.198C1400.1 770.198 1408.2 762.098 1408.2 751.998C1408.2 741.898 1400.1 733.798 1390 733.798Z" fill="#E8E8E8"/>
<path d="M1475.7 897.598C1456.9 897.598 1441.6 882.298 1441.6 863.498C1441.6 844.698 1456.9 829.398 1475.7 829.398C1494.5 829.398 1509.8 844.698 1509.8 863.498C1509.8 882.298 1494.5 897.598 1475.7 897.598ZM1475.7 845.398C1465.7 845.398 1457.5 853.498 1457.5 863.598C1457.5 873.698 1465.6 881.798 1475.7 881.798C1485.8 881.798 1493.9 873.698 1493.9 863.598C1493.9 853.498 1485.8 845.398 1475.7 845.398Z" fill="#E8E8E8"/>
<path d="M122.198 930.899C103.398 930.899 88.0977 915.599 88.0977 896.799C88.0977 877.999 103.398 862.699 122.198 862.699C140.998 862.699 156.298 877.999 156.298 896.799C156.298 915.599 140.998 930.899 122.198 930.899ZM122.198 878.599C112.198 878.599 103.998 886.699 103.998 896.799C103.998 906.899 112.098 914.999 122.198 914.999C132.298 914.999 140.398 906.899 140.398 896.799C140.398 886.699 132.298 878.599 122.198 878.599Z" fill="#E8E8E8"/>
<path d="M1535.4 911.899C1534.5 918.399 1533.6 924.999 1532.5 931.499L1488.6 887.599L1499.9 876.299L1535.4 911.799V911.899Z" fill="#E8E8E8"/>
<path d="M1172.8 1015.9C1171.7 1022.5 1170.2 1032.2 1169.7 1041.5L1164.4 1046.9V1213.2C1158.8 1208 1153.5 1202.9 1148.4 1197.8V1040.2L1172.8 1015.8V1015.9Z" fill="#E8E8E8"/>
<path d="M1158.7 890.799V962.199L1100.6 1020.4V1143C1094.4 1134.9 1089.2 1127.5 1084.6 1120.9V1013.7L1142.7 955.599V905.399L1158.7 890.799Z" fill="#E8E8E8"/>
<path d="M1228.2 1071.6V1263.1C1222.7 1259.5 1217.4 1255.9 1212.2 1252.2V1082.7L1228.2 1071.6Z" fill="#E8E8E8"/>
<path d="M1292 1101.7V1298.2C1286.6 1295.8 1281.3 1293.3 1276 1290.7V1101.7H1292Z" fill="#E8E8E8"/>
<path d="M469.297 912.899V1191.8C467.397 1193.8 465.397 1195.8 463.397 1197.8C460.197 1201.1 456.797 1204.4 453.297 1207.6V896.699L469.297 912.799V912.899Z" fill="#E8E8E8"/>
<path d="M533.099 979.799V1112.2C531.299 1114.9 529.399 1117.9 527.299 1121C524.299 1125.4 520.899 1130.1 517.199 1135.3V966.699L533.199 979.799H533.099Z" fill="#E8E8E8"/>
<path d="M254.499 534.898V550.898H127.199C129.199 545.498 131.299 540.198 133.499 534.898H254.499Z" fill="#E8E8E8"/>
<path d="M308.6 279.7V391.3L241.3 458.6L230 447.3L292.7 384.6V295.2C293.1 294.8 293.6 294.3 294 293.9C298.8 289.1 303.7 284.3 308.7 279.6L308.6 279.7Z" fill="#E8E8E8"/>
<path d="M252.298 598.799V614.799H106.398C107.898 609.499 109.398 604.199 110.998 598.799H252.298Z" fill="#E8E8E8"/>
<path d="M436.297 182.799V480.199L420.297 495.099V192.599C425.597 189.199 430.897 185.999 436.297 182.699V182.799Z" fill="#E8E8E8"/>
<path d="M372.499 225.799V417.799L309.199 481.099V561.199H293.199V474.499L356.499 411.199V238.099C361.799 233.799 367.099 229.799 372.499 225.799Z" fill="#E8E8E8"/>
<path d="M309.099 613.399V678.499H91.6992C92.6992 673.199 93.6993 667.799 94.7993 662.499H293.199V613.299H309.199L309.099 613.399Z" fill="#E8E8E8"/>
<path d="M405.5 1074.3V1247.9C403.6 1249.3 401.6 1250.7 399.6 1252.2C396.3 1254.5 393 1256.9 389.5 1259.2V1074.3H405.5Z" fill="#E8E8E8"/>
<path d="M341.699 1099.6V1287.5C339.699 1288.6 337.799 1289.5 335.799 1290.5C332.499 1292.1 329.199 1293.7 325.699 1295.3V1099.5H341.699V1099.6Z" fill="#E8E8E8"/>
<path d="M214.097 1156.3V1233.6C208.597 1225.9 203.297 1218 198.097 1210.1V1162.9L141.797 1106.7C137.097 1096 132.597 1085.2 128.297 1074.3H131.897L213.997 1156.3H214.097Z" fill="#E8E8E8"/>
<path d="M277.899 1129.9V1311.5C272.399 1305.7 267.099 1299.9 261.899 1293.9V1136.5L114.199 988.798V922.898H130.199V982.198L277.899 1129.8V1129.9Z" fill="#E8E8E8"/>
<path d="M1501 1054.3C1496.7 1066.6 1492.1 1078.8 1487.1 1090.8L1419.6 1158.2V1216.9C1414.4 1224.6 1409.2 1232.2 1403.6 1239.7V1151.6L1501 1054.3Z" fill="#E8E8E8"/>
<path d="M1520.4 989.699C1519.1 994.999 1517.6 1000.3 1516.2 1005.7H1481.9L1355.8 1131.8V1298.9C1350.6 1304.8 1345.3 1310.5 1339.8 1316.2V1125.2L1475.3 989.699H1520.4Z" fill="#E8E8E8"/>
<path d="M1428.2 964.4L1391.8 864.2H1397.6V848.2H1380.5H1317.6L1322.1 835.1L1323.6 830.7C1326 823.7 1323.1 815.6 1316.2 812.7C1314.4 812 1312.5 811.6 1310.5 811.6C1308.5 811.6 1305.3 812.3 1303.1 813.6C1297.4 817 1295.2 824.3 1297.4 830.6L1299 835.2L1303.5 848.2H1240.6H1223.5V864.2H1229.3L1192.9 964.4C1192.6 965.3 1192.4 966.2 1192.4 967.1C1192.4 984.5 1213.6 998.2 1240.7 998.2C1267.8 998.2 1288.9 984.5 1288.9 967.1C1288.9 949.7 1288.7 965.2 1288.4 964.4L1252 864.2H1302.7V1030.2H1268.2V1046.2H1353.1V1030.2H1318.6V864.2H1369.3L1332.9 964.4C1332.6 965.3 1332.4 966.2 1332.4 967.1C1332.4 984.5 1353.6 998.2 1380.6 998.2C1407.6 998.2 1428.9 984.5 1428.9 967.1C1428.9 949.7 1428.7 965.2 1428.4 964.4H1428.2ZM1208.7 966.7L1240.3 879.6L1271.9 966.7H1208.7ZM1348.8 966.7L1380.4 879.6L1412 966.7H1348.8Z" fill="#E8E8E8"/>
<path d="M425.597 964.4L389.197 864.2H394.997V848.2H377.897H314.997L319.497 835.1L320.997 830.7C323.397 823.7 320.497 815.6 313.597 812.7C311.797 812 309.897 811.6 307.897 811.6C305.897 811.6 302.697 812.3 300.497 813.6C294.797 817 292.597 824.3 294.797 830.6L296.397 835.2L300.897 848.2H237.997H220.897V864.2H226.697L190.297 964.4C189.997 965.3 189.797 966.2 189.797 967.1C189.797 984.5 210.997 998.2 238.097 998.2C265.197 998.2 286.297 984.5 286.297 967.1C286.297 949.7 286.097 965.2 285.797 964.4L249.397 864.2H300.097V1030.2H265.597V1046.2H350.497V1030.2H315.997V864.2H366.697L330.297 964.4C329.997 965.3 329.797 966.2 329.797 967.1C329.797 984.5 350.997 998.2 377.997 998.2C404.997 998.2 426.297 984.5 426.297 967.1C426.297 949.7 426.097 965.2 425.797 964.4H425.597ZM206.097 966.7L237.697 879.6L269.297 966.7H206.097ZM346.197 966.7L377.797 879.6L409.397 966.7H346.197Z" fill="#E8E8E8"/>
<path d="M1475 499.299L1462.8 519.499H1487.7L1475 499.299Z" fill="#E8E8E8"/>
<path d="M1252.5 697.499V525.099L1188.4 460.999V184.299C1193.8 187.499 1199.1 190.799 1204.4 194.299V454.299L1268.5 518.499V681.499H1530.9C1531.9 686.799 1532.8 692.099 1533.6 697.499H1252.6H1252.5Z" fill="#E8E8E8"/>
<path d="M416.998 740.398V756.398H82.8984C83.3984 751.098 83.8984 745.798 84.4984 740.398H416.998Z" fill="#E8E8E8"/>
</svg>
