<svg width="1448" height="357" viewBox="0 0 1448 357" fill="none" xmlns="http://www.w3.org/2000/svg">
<path d="M280.802 323.1C250.602 344.7 215.002 356.1 177.702 356.1C79.8016 356.1 0.101562 276.4 0.101562 178.5C0.101562 80.6 79.7016 1 177.702 1C275.702 1 250.402 12.4 280.602 33.8L249.302 77.8C228.402 62.9 203.602 55 177.702 55C109.602 55 54.1016 110.4 54.1016 178.6C54.1016 246.8 109.602 302.2 177.702 302.2C245.802 302.2 228.402 294.2 249.402 279.3L280.802 323.2V323.1ZM145.802 174.1C145.802 159.3 157.802 147.3 172.602 147.3C187.402 147.3 199.402 159.3 199.402 174.1C199.402 188.9 187.402 200.9 172.602 200.9C157.802 200.9 145.802 188.9 145.802 174.1Z" fill="#7CABD6"/>
<path d="M559.702 244.1V356H505.702V244.1C505.702 207.8 476.202 178.3 439.902 178.3C403.602 178.3 374.102 207.8 374.102 244.1V356H320.102V0.599609H374.102V144.1C393.002 131.6 415.602 124.3 439.902 124.3C506.002 124.3 559.702 178 559.702 244.1Z" fill="#7CABD6"/>
<path d="M611.5 356.1V124.3H665.5V356.1H611.5ZM611.7 54.7C611.7 39.9 623.7 28 638.5 28C653.3 28 665.2 40 665.2 54.7C665.2 69.4 653.2 81.5 638.5 81.5C623.8 81.5 611.7 69.5 611.7 54.7Z" fill="#7CABD6"/>
<path d="M912.902 124.3V178.3H831.402C799.002 178.3 772.602 204.7 772.602 237.1V356.1H718.602V237.1C718.602 174.9 769.202 124.3 831.402 124.3H912.902Z" fill="#7CABD6"/>
<path d="M1167 240.1C1167 304 1115.1 355.9 1051.2 355.9C987.298 355.9 935.398 303.9 935.398 240.1C935.398 176.3 987.298 124.3 1051.2 124.3C1115.1 124.3 1167 176.3 1167 240.1ZM1113.2 240.1C1113.2 205.9 1085.4 178.2 1051.3 178.2C1017.2 178.2 989.298 206 989.298 240.1C989.298 274.2 1017.1 302.1 1051.3 302.1C1085.5 302.1 1113.2 274.3 1113.2 240.1ZM1024.5 54.7C1024.5 39.9 1036.5 28 1051.3 28C1066.1 28 1078.1 40 1078.1 54.7C1078.1 69.4 1066.1 81.5 1051.3 81.5C1036.5 81.5 1024.5 69.5 1024.5 54.7Z" fill="#7CABD6"/>
<path d="M1447.7 244.1V356.1H1393.7V244.1C1393.7 207.8 1364.2 178.3 1327.9 178.3C1291.6 178.3 1262.1 207.8 1262.1 244.1V356.1H1208.1V244.1C1208.1 178 1261.9 124.3 1327.9 124.3C1393.9 124.3 1447.7 178 1447.7 244.1Z" fill="#7CABD6"/>
</svg>
