<svg width="1103" height="775" viewBox="0 0 1103 775" fill="none" xmlns="http://www.w3.org/2000/svg">
<path d="M1007.3 51.6C997.1 51.6 986.7 52.7 975.8 55C956.6 59.1 938.8 64.6 922.6 71.3C912.1 75.7 898.7 82 882.5 90.4C818.5 123.7 757.4 161.7 702.7 207C685.1 221.5 668.4 238 652.5 256.4C619.4 294.7 592.1 337.2 570.5 383.9C570.3 384.5 569.3 384.3 569.2 383.6C569.1 377.9 567.3 372.5 564.3 367.6C563.9 367.1 564.1 366.5 564.7 366.1C582.2 354.8 582.6 332.1 565.3 320.5C564.2 319.8 563.7 318.5 564 317.1C570 286.3 578.8 255.3 590.1 224.3C592 219 594.3 213.9 597 208.7C599 204.8 601.5 199.7 604.6 193.4C608.6 185.3 614.7 176.1 623 165.9C626.8 161.1 631.3 158.4 637.2 158.3C643.5 158.1 652.6 158.6 653.9 152.1C655.1 145.8 652.8 142.1 646.8 140.8C639.4 139.2 627.5 148.2 622.3 153.4C612.9 162.8 604.8 173.9 597.8 186.6C590.6 200 584.8 212.2 580.6 223.6C569.2 254.1 560.8 283.9 555.4 312.9C555.4 313.6 555 314.2 554.8 314.8C554.5 314.2 554.2 313.7 554.2 312.9C548.8 283.9 540.4 254.1 529 223.6C524.8 212.2 519 200 511.8 186.6C504.8 173.9 496.7 162.8 487.3 153.4C482.1 148.2 470.2 139.3 462.8 140.8C456.9 142.1 454.5 145.8 455.7 152.1C457 158.7 466.1 158.1 472.4 158.3C478.3 158.3 482.8 161.1 486.6 165.9C494.9 176.1 501 185.3 505 193.4C508.1 199.7 510.6 204.8 512.6 208.7C515.2 213.9 517.5 219.1 519.5 224.3C530.8 255.4 539.6 286.4 545.6 317.1C545.8 318.5 545.3 319.7 544.3 320.5C527 332.1 527.4 354.7 544.9 366.1C545.5 366.5 545.6 367.1 545.3 367.6C542.2 372.5 540.5 377.9 540.4 383.6C540.4 384.3 539.3 384.5 539.1 383.9C517.5 337.1 490.2 294.6 457.1 256.4C441.2 238 424.5 221.5 406.9 207C352.2 161.8 291.1 123.8 227.1 90.4C210.8 82 197.5 75.6 187 71.3C170.8 64.7 153 59.2 133.8 55C122.9 52.6 112.5 51.5 102.3 51.6C85.3999 51.7 48.5999 53.9 49.6999 77.7C49.6999 82.7 50.7999 87 52.6999 90.4C64.0999 111.2 77.1999 134.9 92.0999 161.4C102 178.8 112.6 195.1 120.4 213.7C128.3 232.2 134.4 251.4 139.3 270.9C149.1 309.8 155.4 345.7 181 375.6C211.5 411.2 258.1 425.9 304.3 424.7C272.6 432.5 239.4 444.9 218.2 470.5C211.2 478.9 205.8 488.6 202.1 498.9C184.9 547.2 191.1 602.7 213.9 648.2C227.8 675.9 248.7 702.2 276 717.5C307.5 735.1 345.6 739.9 381 734.1C419.2 727.7 446.2 702.7 470.4 673.2C505.7 630.2 519.7 572.9 542.4 522.2C543 534.6 546.3 582 554.9 591.3C563.5 582 566.7 534.5 567.4 522.3C590 572.9 604.1 630.2 639.4 673.2C663.6 702.7 690.6 727.8 728.8 734.1C764.2 740 802.3 735.2 833.8 717.5C861.2 702.2 882.1 675.9 895.9 648.2C918.7 602.7 924.9 547.2 907.7 498.9C904 488.5 898.6 478.9 891.6 470.5C870.5 444.9 837.2 432.5 805.5 424.7C851.7 425.9 898.3 411.3 928.8 375.6C954.4 345.8 960.7 309.8 970.5 270.9C975.4 251.4 981.6 232.2 989.4 213.7C997.2 195.1 1007.9 178.8 1017.7 161.4C1032.6 134.9 1045.7 111.3 1057.1 90.4C1059 87 1060 82.7 1060.1 77.7C1061.2 53.9 1024.3 51.7 1007.5 51.6H1007.3ZM159.8 152.6C156.9 154.8 153.2 155.9 149.2 155.5C142.6 154.7 137.3 149.3 136.6 142.7C135.6 134 142.5 126.6 151 126.6C159.5 126.6 164.7 132.4 165.4 139.7L287.9 187.1C290 187.9 291.5 190 291.5 192.3V225.2C291.5 229.2 288.1 232.5 283.9 232.2C280.2 232 277.3 228.7 277.3 224.9V198.1L159.7 152.5L159.8 152.6ZM298.3 311.2H261.9C260.6 313.5 258.7 315.5 256.3 316.8V330.2C260.9 332.8 264 337.8 263.7 343.6C263.4 350.9 257.3 357 249.9 357.4C241.5 357.8 234.7 351.2 234.7 342.9C234.7 337.4 237.7 332.7 242.1 330.2V316.8C237.2 314 234 308.6 234.7 302.4C235.4 295.8 240.8 290.3 247.4 289.6C253.5 288.9 259 292 261.7 297H301.5C302.9 297 304.4 297.6 305.4 298.6L337.3 330.5H426.3C430.4 330.5 433.7 333.9 433.4 338.1C433.2 341.8 429.9 344.7 426.1 344.7H333.8C332.3 344.7 330.8 344.1 329.8 343.1L297.9 311.3L298.3 311.2ZM437.8 382.2C441.6 382.2 444.9 385.3 444.9 389.3C444.9 393.3 441.8 396.4 437.8 396.4H344.5C342 400.8 337.2 403.8 331.8 403.8C323.8 403.8 317.3 397.3 317.3 389.3C317.3 381.3 323.8 374.8 331.8 374.8C339.8 374.8 342 377.8 344.5 382.2H437.8ZM265.5 494.5C265.8 487.1 271.9 481.1 279.3 480.7C285 480.4 290.1 483.5 292.6 488.1H304.3L349.1 443.3C350.2 442.2 351.6 441.7 353.1 441.7H460.4C464.5 441.7 467.8 445.1 467.5 449.3C467.3 453 464 455.9 460.2 455.9H356.7L311.9 500.7C310.8 501.8 309.4 502.3 307.9 502.3H292.7C290.2 506.7 285.4 509.7 280 509.7C271.8 509.7 265.1 502.9 265.5 494.5ZM276 585.3C275.6 576.9 282.3 570.1 290.6 570.1C298.9 570.1 294.2 570.5 295.8 571.1L329.2 543.5L335.9 538L351.4 525.2L363.4 515.3L380.8 500.9V481C380.8 479 381.6 477.3 382.9 476C384.2 474.7 385.9 473.9 387.9 473.9C389.9 473.9 393 475.4 394.2 477.7C394.7 478.7 395 479.8 395 481V504.8C395 506.5 394.3 508 393 509.1L381 519H380.9L340 552.9L336.2 556L304.9 581.9C305 582.8 305.1 583.6 305.1 584.5C305.1 592.7 298.2 599.4 289.9 599C282.5 598.7 276.4 592.7 276 585.2V585.3ZM415.9 647C415.9 648.7 415.1 650.3 413.8 651.4L388.2 672.5C388.4 673.3 388.4 674.2 388.4 675.1C388.4 683.3 381.5 690 373.2 689.6C365.8 689.3 359.8 683.2 359.4 675.8C359 667.4 365.7 660.6 374 660.6C382.3 660.6 377.6 661 379.3 661.6L401.8 643.1V606.2C401.8 602.1 405.2 598.9 409.3 599.1C413 599.3 415.9 602.6 415.9 606.4V647.1V647ZM506.6 466.2C507 466.6 507.3 467.1 507.4 467.8C508 472.9 503.3 476.2 499.2 479.2C498.4 479.7 498.8 481 499.8 481.1C504.9 481.5 507.2 484 506.7 488.5C506.4 491.5 504.3 493.3 502.1 495.9C500.4 497.8 499.6 500.4 500.1 503C500.6 505.5 501.4 508.3 502.1 510.7C502.7 512.6 503.4 514.6 503.2 516.6C502.7 521.4 499.4 526.5 496.1 529.9C492.8 533.4 488.5 535.8 483.7 537C483.4 537 482.9 537.1 482.6 537.1C474.5 537.5 466.5 537.7 458.5 538C456.9 538 455.2 538.1 453.6 538.2C451.9 538.2 450.2 538.7 448.7 539.3C447.1 539.9 445.7 540.8 444.4 541.9L385.2 593.4L362.5 613.1L309.8 658.9C309.8 659.1 309.8 659.2 309.8 659.4V659.6C309.8 659.8 309.8 660.1 309.8 660.3C309.8 660.8 309.8 661.3 309.8 661.8C309.8 662.3 309.8 662.3 309.8 662.5C309.8 662.7 309.8 663 309.8 663.2C309.8 663.5 309.8 663.7 309.7 664C309.7 664.2 309.7 664.4 309.6 664.6C309.6 664.6 309.6 664.6 309.6 664.7C309.6 664.8 309.6 664.9 309.6 665.1C309.6 665.2 309.6 665.3 309.6 665.4C309.6 665.5 309.6 665.7 309.5 665.8C309.5 665.8 309.5 665.8 309.5 665.9C309.5 666.1 309.4 666.3 309.3 666.4C307.5 671.5 302.8 675.2 297.3 675.8C297.2 675.8 297.1 675.8 297 675.8C296.8 675.8 296.7 675.8 296.5 675.8C296.2 675.8 296 675.8 295.7 675.8C294.7 675.8 293.7 675.8 292.8 675.5C292.3 675.4 291.8 675.3 291.3 675.1C291.1 675.1 291 675.1 290.8 674.9C290.4 674.7 289.9 674.6 289.5 674.4C288.4 673.9 287.4 673.3 286.5 672.5C286 672.1 285.5 671.6 285 671.1C284.8 670.9 284.6 670.6 284.4 670.4C284.2 670.2 284.1 670 283.9 669.8C282.8 668.3 282 666.6 281.6 664.8C281.6 664.6 281.6 664.5 281.5 664.3C281.4 663.7 281.3 663.2 281.3 662.6C281.3 662.5 281.3 662.3 281.3 662.1C281.3 661.9 281.3 661.6 281.3 661.4C281.3 661.2 281.3 660.9 281.3 660.7C281.3 660.5 281.3 660.4 281.3 660.2C281.3 660 281.3 659.9 281.3 659.7C281.3 659.7 281.3 659.6 281.3 659.5C281.3 659.3 281.3 659.1 281.3 658.9V658.7C281.3 658.5 281.3 658.3 281.4 658.1C281.8 656.4 282.5 654.8 283.5 653.3C283.5 653.2 283.7 653 283.8 652.9C283.8 652.8 284 652.6 284.1 652.5C284.2 652.4 284.3 652.2 284.4 652.1C284.6 651.9 284.8 651.6 285 651.4C285.1 651.3 285.2 651.1 285.4 651C285.8 650.6 286.2 650.3 286.6 650C286.7 649.9 286.9 649.8 287 649.7C287.1 649.7 287.3 649.5 287.4 649.4C287.8 649.1 288.3 648.8 288.7 648.6C288.8 648.6 289 648.4 289.2 648.4C290.5 647.8 291.9 647.3 293.3 647.1C293.6 647.1 293.8 647.1 294.1 647C294.3 647 294.5 647 294.7 647C294.9 647 295.2 647 295.4 647H295.5C295.8 647 296 647 296.2 647C296.4 647 296.7 647 296.9 647C297.1 647 297.3 647 297.5 647C298.5 647.1 299.5 647.4 300.4 647.7L303 645.4L306.4 642.5L307.4 641.7C310.5 639.1 313.5 636.4 316.6 633.8C322.2 629 327.7 624.2 333.3 619.3C339.6 613.9 345.8 608.4 352.1 603C355 600.6 357.7 598.1 360.6 595.6L371.7 586L383.1 576.1L410.6 552.3L412.8 550.4L433.9 532.1C434.1 531.9 434.3 531.7 434.5 531.5L437.6 528.8L443.2 523.9C443.2 523.9 443.2 523.9 443.3 523.8C443.6 523.6 443.9 523.3 444.2 523.1C446.6 520.9 449.4 519.3 452.4 518.3C454.9 517.4 457.3 516.4 459.7 515.2C471.2 509.3 479.3 498.7 483 486.5C484.9 480.4 485.8 474.1 486.2 467.8C487 452 482.6 436.6 477.1 421.9C473.6 412.5 468.9 403.5 465.9 394C462.9 384.3 461.3 374.1 459.7 364C457.7 351.2 455.8 338.9 450.8 327.7C441.7 307.1 424.7 288.3 404 276C392.9 269.5 380.5 264.7 367.6 264H257.7C256.2 264 254.8 263.4 253.8 262.4L216.7 226.9H209.4C206.8 231.5 201.7 234.6 196 234.3C195.2 234.3 194.4 234.2 193.7 234C187.4 232.7 182.5 227.1 182.2 220.5C181.9 213.1 187 207 193.8 205.5C194.7 205.3 195.7 205.2 196.7 205.2C202.2 205.2 206.9 208.3 209.4 212.7H220.1C221.5 212.7 223 213.2 224 214.2L261.1 249.7H368.1C382.2 250.4 396.7 255.1 411.2 263.7C434.3 277.4 453.5 298.6 463.7 321.9C473.8 345 472.7 371 481.6 394.4C483.5 399.4 486.5 404.1 490.2 408C494.5 412.7 499.7 417.4 505.3 420.5C520.3 428.9 505.8 436.9 500.7 443.1C494.2 451 499.8 459.1 506.6 465.4V466.2ZM750 675.7C749.7 683 743.6 689.2 736.2 689.5C727.8 689.9 721 683.2 721 675C721 666.8 721 673.2 721.2 672.4L695.6 651.3C694.3 650.2 693.5 648.7 693.5 646.9V606.2C693.5 602.4 696.4 599.1 700.1 598.9C704.2 598.6 707.6 601.9 707.6 606V642.9L730.1 661.4C731.7 660.8 733.5 660.4 735.4 660.4C743.7 660.4 750.4 667.3 750 675.6V675.7ZM833.4 585.3C833 592.7 827 598.8 819.5 599.1C811.2 599.5 804.3 592.8 804.3 584.6C804.3 576.4 804.3 582.8 804.5 582L773.2 556.1L769.4 553L728.5 519.2H728.4L716.4 509.2C715.1 508.1 714.4 506.6 714.4 504.9V481.1C714.4 479.9 714.7 478.8 715.2 477.8C716.4 475.6 718.7 474 721.5 474C724.3 474 725.2 474.8 726.5 476.1C727.8 477.4 728.6 479.1 728.6 481.1V501L746 515.4L758 525.3L773.5 538.1L780.2 543.6L813.6 571.2C815.2 570.6 817 570.2 818.8 570.2C827.1 570.2 833.7 577.1 833.4 585.4V585.3ZM816.7 488.2C819.3 483.6 824.3 480.5 830 480.8C837.4 481.2 843.4 487.2 843.8 494.6C844.2 503 837.5 509.8 829.3 509.8C821.1 509.8 819.1 506.8 816.6 502.4H801.4C799.9 502.4 798.5 501.8 797.4 500.8L752.6 456H649.1C645.3 456 642 453.2 641.8 449.4C641.5 445.3 644.8 441.8 648.9 441.8H756.2C757.7 441.8 759.1 442.4 760.2 443.4L805 488.2H816.7ZM664.5 389.2C664.5 385.3 667.7 382.1 671.6 382.1H764.9C767.4 377.7 772.1 374.7 777.6 374.7C785.6 374.7 792.1 381.2 792.1 389.2C792.1 397.2 785.6 403.7 777.6 403.7C769.6 403.7 767.4 400.7 764.9 396.3H671.6C667.7 396.3 664.5 393.2 664.5 389.2ZM874.5 342.9C874.5 351.2 867.7 357.8 859.3 357.4C852 357 845.8 351 845.5 343.6C845.2 337.8 848.3 332.8 852.9 330.2V316.8C850.5 315.5 848.6 313.5 847.3 311.2H810.9L779 343C778 344.1 776.5 344.6 775 344.6H682.7C678.9 344.6 675.6 341.7 675.4 338C675.1 333.9 678.4 330.4 682.5 330.4H771.5L803.4 298.5C804.4 297.4 805.9 296.9 807.3 296.9H847.1C849.8 292 855.3 288.8 861.4 289.5C868 290.2 873.4 295.6 874.1 302.3C874.8 308.4 871.7 313.9 866.7 316.7V330.1C871.1 332.6 874.1 337.3 874.1 342.8L874.5 342.9ZM915.8 234.7C915.1 234.9 914.3 235 913.5 235C907.8 235.3 902.7 232.2 900.1 227.6H892.8L855.7 263.1C854.6 264.1 853.3 264.7 851.8 264.7H741.9C729 265.3 716.5 270.2 705.5 276.7C684.9 289 667.8 307.9 658.7 328.4C653.8 339.7 651.8 351.9 649.8 364.7C648.2 374.8 646.6 385 643.6 394.7C640.6 404.3 635.9 413.2 632.4 422.6C626.9 437.2 622.5 452.7 623.3 468.5C623.7 474.8 624.6 481.1 626.5 487.2C630.3 499.4 638.3 510 649.8 515.9C652.2 517.1 654.6 518.1 657.1 519C660.1 520.1 662.9 521.6 665.3 523.7C665.6 524 665.9 524.2 666.2 524.5C666.2 524.5 666.2 524.5 666.3 524.6L671.9 529.5L675 532.2C675.2 532.4 675.4 532.6 675.6 532.8L696.7 551.1L698.9 553L726.4 576.8L737.8 586.7L748.9 596.3C751.8 598.8 754.5 601.2 757.4 603.7C763.7 609.1 769.9 614.6 776.2 620C781.8 624.9 787.3 629.7 792.9 634.5C796 637.2 799 639.8 802.1 642.4L803.1 643.2L806.5 646.1L809.1 648.4C810 648.1 811 647.8 812 647.7C812.2 647.7 812.4 647.7 812.6 647.7C812.8 647.7 813.1 647.7 813.3 647.7C813.5 647.7 813.8 647.7 814 647.7H814.1C814.3 647.7 814.5 647.7 814.8 647.7C815 647.7 815.2 647.7 815.4 647.7C815.7 647.7 815.9 647.7 816.2 647.8C817.7 648 819.1 648.4 820.3 649.1C820.5 649.1 820.6 649.2 820.8 649.3C821.3 649.5 821.7 649.8 822.1 650.1C822.2 650.1 822.4 650.3 822.5 650.4C822.6 650.5 822.8 650.6 822.9 650.7C823.3 651 823.7 651.3 824.1 651.7C824.2 651.8 824.3 651.9 824.5 652.1C824.7 652.3 824.9 652.5 825.1 652.8C825.2 652.9 825.3 653.1 825.4 653.2C825.5 653.3 825.6 653.5 825.7 653.6C825.8 653.7 825.9 653.9 826 654C826.9 655.4 827.7 657 828.1 658.8C828.1 659 828.1 659.2 828.2 659.4C828.2 659.4 828.2 659.5 828.2 659.6C828.2 659.8 828.2 660 828.2 660.2V660.4C828.2 660.6 828.2 660.7 828.2 660.9C828.2 661.1 828.2 661.2 828.2 661.4C828.2 661.6 828.2 661.8 828.2 662.1C828.2 662.4 828.2 662.6 828.2 662.8C828.2 663 828.2 663.1 828.2 663.3C828.2 663.9 828.1 664.5 828 665C828 665.2 828 665.3 827.9 665.5C827.5 667.3 826.7 669 825.6 670.5C825.4 670.7 825.3 670.9 825.1 671.1C824.9 671.3 824.7 671.6 824.5 671.8C824 672.3 823.5 672.8 823 673.2C822.1 673.9 821.1 674.6 820 675.1C819.6 675.3 819.2 675.5 818.7 675.6C818.5 675.6 818.4 675.7 818.2 675.8C817.7 676 817.2 676.1 816.7 676.2C815.8 676.4 814.8 676.5 813.8 676.5C812.8 676.5 813.3 676.5 813 676.5C812.8 676.5 812.7 676.5 812.5 676.5C812.5 676.5 812.3 676.5 812.2 676.5C806.7 675.9 802.1 672.2 800.2 667.1C800.2 666.9 800.1 666.7 800 666.6C800 666.6 800 666.6 800 666.5C800 666.4 800 666.2 799.9 666.1C799.9 666 799.9 665.9 799.9 665.8C799.9 665.7 799.9 665.6 799.9 665.4C799.9 665.4 799.9 665.4 799.9 665.3C799.9 665.1 799.9 664.9 799.8 664.7C799.8 664.4 799.8 664.2 799.7 663.9C799.7 663.7 799.7 663.4 799.7 663.2C799.7 663 799.7 662.7 799.7 662.5C799.7 662 799.7 661.5 799.7 661C799.7 660.8 799.7 660.5 799.7 660.3V660.1C799.7 659.9 799.7 659.8 799.7 659.6L747 613.8L724.3 594.1L665.1 542.6C663.8 541.5 662.4 540.6 660.8 540C659.3 539.4 657.6 539 655.9 538.9C654.3 538.9 652.6 538.8 651 538.7C643 538.4 635 538.1 626.9 537.8C626.6 537.8 626.1 537.8 625.8 537.7C621.1 536.4 616.7 534.1 613.4 530.6C610.1 527.1 606.9 522.1 606.3 517.3C606.1 515.3 606.8 513.3 607.4 511.4C608.2 508.9 609 506.2 609.4 503.7C609.8 501.2 609.1 498.5 607.4 496.6C605.1 494 603 492.2 602.8 489.2C602.4 484.6 604.7 482.2 609.7 481.8C610.7 481.8 611.1 480.4 610.3 479.9C606.2 476.9 601.5 473.6 602.1 468.5C602.1 467.9 602.5 467.4 602.9 466.9C609.8 460.5 615.3 452.5 608.8 444.6C603.7 438.4 589.2 430.4 604.2 422C609.8 418.9 615 414.2 619.3 409.5C622.9 405.6 625.9 400.9 627.9 395.9C636.8 372.5 635.7 346.5 645.8 323.4C656 300.1 675.2 278.9 698.3 265.2C712.8 256.6 727.3 251.9 741.4 251.2H848.4L885.5 215.7C886.5 214.7 887.9 214.2 889.4 214.2H900.1C902.6 209.8 907.3 206.7 912.8 206.7C913.8 206.7 914.8 206.8 915.7 207C922.5 208.5 927.6 214.7 927.3 222C927 228.6 922.1 234.2 915.8 235.5V234.7ZM972.8 142.7C972.1 149.3 966.8 154.7 960.2 155.5C956.2 156 952.5 154.9 949.6 152.6L832 198.2V225C832 228.8 829.1 232.1 825.4 232.3C821.3 232.6 817.8 229.3 817.8 225.3V192.4C817.8 190.1 819.2 188 821.4 187.2L943.9 139.8C944.6 132.4 950.8 126.7 958.3 126.7C965.8 126.7 973.7 134.1 972.7 142.8L972.8 142.7Z" fill="#0597B1"/>
</svg>
