<svg width="2462" height="356" viewBox="0 0 2462 356" fill="none" xmlns="http://www.w3.org/2000/svg">
<path d="M197.1 303V355.6H93.4C41.9 355.6 0 313.7 0 262.2V1.5H54V263.5C54 285.2 71.7 302.9 93.4 302.9H197.1V303Z" fill="#00587F"/>
<path d="M469.4 0V355.4H415.4V54H415C340.5 54 279.9 114.6 279.9 189.2V355.5H225.9V189.2C225.9 84.8999 310.7 0.0999756 415 0.0999756H469.4V0ZM323.7 173.5C323.7 158.7 335.7 146.7 350.5 146.7C365.3 146.7 377.3 158.7 377.3 173.5C377.3 188.3 365.3 200.3 350.5 200.3C335.7 200.3 323.7 188.3 323.7 173.5Z" fill="#00587F"/>
<path d="M659.099 229.6L629.799 300.2L505.699 0H564.199L659.199 229.6H659.099ZM990.599 0L944.099 112.2H943.899L842.799 355.4H794.499L789.399 343.1L747.799 242.5L700.899 355.4H652.599L647.499 343.1L676.799 272.6L718.599 172.1L647.499 0.0999756H705.999L777.199 172.1L818.799 272.6L887.899 106.4L932.099 0.0999756H990.599V0ZM792.299 26.7999C792.299 11.9999 804.299 0 819.099 0C833.899 0 845.799 11.9999 845.799 26.7999C845.799 41.5999 833.799 53.5 819.099 53.5C804.299 53.5 792.299 41.4999 792.299 26.7999Z" fill="#00587F"/>
<path d="M1346.8 177.7C1346.8 275.7 1267.4 355.4 1169.7 355.4C1072 355.4 992.6 275.7 992.6 177.7C992.6 79.7 1072.1 0 1169.7 0C1267.3 0 1346.8 79.7 1346.8 177.7ZM1292.8 177.7C1292.8 109.6 1237.6 54.2 1169.7 54.2C1101.8 54.2 1046.6 109.6 1046.6 177.7C1046.6 245.8 1101.8 301.3 1169.7 301.3C1237.6 301.3 1292.8 245.9 1292.8 177.7ZM1139.6 172.8C1139.6 158 1151.6 146 1166.3 146C1181 146 1193.1 158 1193.1 172.8C1193.1 187.6 1181.1 199.6 1166.3 199.6C1151.5 199.6 1139.6 187.6 1139.6 172.8Z" fill="#A6A6A6"/>
<path d="M1626.2 109.199C1626.2 169.399 1577.4 218.399 1517.5 218.399H1484.1V164.199H1517.5C1547.7 164.199 1572.2 139.599 1572.2 109.299C1572.2 78.9992 1547.7 54.0992 1517.5 54.0992H1451.2V355.499H1397.2V0.199219H1517.5C1577.4 0.199219 1626.2 49.1992 1626.2 109.299V109.199Z" fill="#A6A6A6"/>
<path d="M1882.7 251.4C1882.4 308.8 1835.7 355.5 1778.5 355.5H1657.9V301.3H1778.5C1806 301.3 1828.6 278.8 1828.7 251.2C1828.7 237.7 1823.6 225 1814.1 215.4C1804.6 205.8 1792 200.5 1778.5 200.5H1755.3C1707.8 200.5 1667.9 166.9 1657.9 122.2C1654.5 110.6 1656.1 89.2 1656.1 89.2C1656.2 88 1656.5 86.8 1656.6 85.6H1711.9C1711.5 86.8 1711.1 88 1710.9 89.2C1707.1 109.5 1715.2 122.2 1715.2 122.2C1723 136.5 1738 146.3 1755.3 146.3H1778.5C1806.4 146.3 1832.7 157.2 1852.4 177.1C1872.1 197 1882.9 223.3 1882.7 251.3V251.4ZM1869.5 0V54.2999H1667.1C1671.7 45.6999 1677.4 36.6 1684.4 29.5C1702.7 11.1 1726.8 0.799976 1752.5 0.0999756C1752.5 -2.44156e-05 1869.4 0 1869.4 0H1869.5Z" fill="#A6A6A6"/>
<path d="M2167.7 0V355.4H2113.7V54H2113.3C2038.8 54 1978.2 114.6 1978.2 189.2V355.5H1924.2V189.2C1924.2 84.8999 2009 0.0999756 2113.3 0.0999756H2167.7V0ZM2022 173.5C2022 158.7 2034 146.7 2048.8 146.7C2063.6 146.7 2075.6 158.7 2075.6 173.5C2075.6 188.3 2063.6 200.3 2048.8 200.3C2034 200.3 2022 188.3 2022 173.5Z" fill="#343434"/>
<path d="M2235 355.4V0H2289V355.4H2235Z" fill="#343434"/>
<path d="M2374.2 0.400757V11.6008H2352.4V68.4008H2338.9V11.6008H2317.1V0.400757H2374.1H2374.2ZM2447.7 68.4008L2445.2 28.4008C2445 23.2008 2445 16.6008 2444.7 9.40076H2443.9C2442.1 15.4008 2440.1 23.4008 2438.1 29.6008L2425.9 67.4008H2411.9L2399.7 28.6008C2398.5 23.4008 2396.5 15.4008 2394.9 9.40076H2394.1C2394.1 15.6008 2393.9 22.2008 2393.6 28.4008L2391.1 68.4008H2378.1L2383.1 0.400757H2403.3L2415.1 33.6008C2416.6 38.8008 2417.9 43.8008 2419.6 50.8008H2419.8C2421.6 44.6008 2423 38.8008 2424.6 33.8008L2436.4 0.300781H2455.9L2461.1 68.3008H2447.6L2447.7 68.4008Z" fill="#343434"/>
</svg>
