<svg width="1864" height="447" viewBox="0 0 1864 447" fill="none" xmlns="http://www.w3.org/2000/svg">
<path d="M1040.2 224.5C1040.2 347.9 939.8 446.5 816.3 446.5H736.1V378.8H816.3C902.4 378.8 972.5 310.7 972.5 224.5C972.5 138.3 902.5 68.3001 816.3 68.3001H736V0.600098H816.3C939.8 0.600098 1040.2 101 1040.2 224.5ZM736 218.3C736 199.8 751 184.7 769.6 184.7C788.2 184.7 803.2 199.7 803.2 218.3C803.2 236.9 788.2 251.9 769.6 251.9C751 251.9 736 236.9 736 218.3Z" fill="#0597B1"/>
<path d="M1235.5 288.7L1198.8 377.2L1043.1 0.600098H1116.5L1235.6 288.6L1235.5 288.7ZM1473.5 0.600098L1415.2 141.4H1415L1288.2 446.5H1227.6L1221.2 431L1257.9 342.5C1257.9 342.6 1344.6 134 1344.6 134L1400.1 0.600098H1473.5ZM1224.7 34.2001C1224.7 15.7001 1239.7 0.600098 1258.3 0.600098C1276.9 0.600098 1291.9 15.6001 1291.9 34.2001C1291.9 52.8001 1276.9 67.8001 1258.3 67.8001C1239.7 67.8001 1224.7 52.8001 1224.7 34.2001Z" fill="#0597B1"/>
<path d="M1822.6 223.2C1848 246.7 1864 280.3 1864 317.8C1864 387.2 1809.2 443.7 1740.8 446.2H1638.8C1570.5 443.7 1515.6 387.2 1515.6 317.8C1515.6 248.4 1531.6 246.8 1557 223.2C1531.6 199.7 1515.6 166.1 1515.6 128.6C1515.6 59.2002 1570.4 2.7002 1638.8 0.200195H1740.8C1809.1 2.7002 1864 59.2002 1864 128.6C1864 198 1847.9 199.6 1822.6 223.2ZM1710.5 257.3V189.1H1736.3C1769.4 189.1 1796.3 162 1796.3 128.6C1796.3 95.2002 1769.4 68.1002 1736.3 68.1002H1643.5C1610.4 68.1002 1583.5 95.2002 1583.5 128.6C1583.5 162 1610.4 189.1 1643.5 189.1H1669.3V257.3H1643.5C1610.4 257.3 1583.5 284.4 1583.5 317.8C1583.5 351.2 1610.4 378.3 1643.5 378.3H1736.3C1769.4 378.3 1796.3 351.2 1796.3 317.8C1796.3 284.4 1769.4 257.3 1736.3 257.3H1710.5ZM1689.9 162C1671.4 162 1656.3 146.9 1656.3 128.3C1656.3 109.7 1671.3 94.6002 1689.9 94.6002C1708.5 94.6002 1723.5 109.7 1723.5 128.3C1723.5 146.9 1708.5 162 1689.9 162ZM1656.3 317.2C1656.3 298.6 1671.3 283.5 1689.9 283.5C1708.5 283.5 1723.5 298.6 1723.5 317.2C1723.5 335.8 1708.5 350.9 1689.9 350.9C1671.3 350.9 1656.3 335.8 1656.3 317.2Z" fill="#0597B1"/>
<path d="M623.8 0.399969C617.2 0.399969 610.4 1.09998 603.3 2.59998C590.8 5.29998 579.2 8.89999 568.6 13.2C561.8 16 553.1 20.2 542.5 25.7C500.8 47.4 461 72.2 425.4 101.6C414 111 403.1 121.8 392.7 133.8C371.2 158.7 353.4 186.4 339.3 216.9C339.2 217.3 338.5 217.2 338.5 216.7C338.5 213 337.3 209.4 335.3 206.3C335.1 206 335.2 205.6 335.5 205.3C346.9 197.9 347.2 183.2 335.9 175.6C335.2 175.1 334.9 174.3 335 173.4C338.9 153.3 344.6 133.2 352 112.9C353.3 109.5 354.8 106.1 356.5 102.7C357.8 100.1 359.4 96.8 361.5 92.7C364.1 87.4 368.1 81.4 373.5 74.8C376 71.7 378.9 69.9 382.8 69.9C386.9 69.8 392.8 70.1 393.7 65.9C394.5 61.8 393 59.4 389.1 58.5C384.3 57.5 376.5 63.3 373.1 66.7C367 72.8 361.7 80.1 357.1 88.3C352.4 97 348.6 105 345.9 112.4C338.5 132.3 333 151.7 329.5 170.6C329.5 171.1 329.3 171.4 329.1 171.8C328.9 171.4 328.7 171.1 328.7 170.6C325.2 151.7 319.7 132.3 312.3 112.4C309.6 105 305.8 97 301.1 88.3C296.5 80 291.2 72.8 285.1 66.7C279 60.6 273.9 57.5 269.1 58.5C265.2 59.3 263.7 61.8 264.5 65.9C265.4 70.2 271.3 69.8 275.4 69.9C279.3 69.9 282.2 71.7 284.7 74.8C290.1 81.5 294.1 87.4 296.7 92.7C298.8 96.8 300.4 100.1 301.7 102.7C303.4 106.1 304.9 109.5 306.2 112.9C313.6 133.1 319.3 153.3 323.2 173.4C323.3 174.3 323 175.1 322.3 175.6C311 183.1 311.3 197.9 322.7 205.3C323.1 205.5 323.2 206 322.9 206.3C320.9 209.5 319.8 213 319.7 216.7C319.7 217.2 319 217.3 318.9 216.9C304.8 186.4 287 158.7 265.5 133.8C255.1 121.8 244.2 111 232.8 101.6C197.2 72.1 157.4 47.4 115.7 25.7C105.1 20.2 96.4 16.1 89.6 13.2C79 8.89999 67.5 5.29998 54.9 2.59998C47.8 1.09998 41 0.299969 34.4 0.399969C23.4 0.399969 -0.59999 1.89997 0.10001 17.4C0.10001 20.7 0.800009 23.4 2.10001 25.7C9.50001 39.3 18.1 54.7 27.7 72C34.1 83.3 41.1 94 46.2 106.1C51.3 118.2 55.3 130.7 58.5 143.4C64.9 168.7 69 192.2 85.7 211.6C105.6 234.8 135.9 244.4 166 243.6C145.3 248.7 123.7 256.8 109.9 273.4C105.3 278.9 101.8 285.2 99.4 291.9C88.2 323.4 92.2 359.6 107.1 389.2C116.1 407.3 129.8 424.4 147.6 434.3C168.1 445.8 193 448.9 216 445.1C240.9 441 258.5 424.6 274.3 405.4C297.3 377.4 306.5 340 321.2 307C321.6 315 323.8 345.9 329.3 352C334.9 345.9 337 315 337.4 307.1C352.1 340 361.3 377.4 384.3 405.4C400.1 424.6 417.7 440.9 442.6 445.1C465.6 448.9 490.5 445.8 511 434.3C528.8 424.3 542.5 407.2 551.5 389.2C566.3 359.6 570.4 323.4 559.2 291.9C556.8 285.1 553.3 278.9 548.7 273.4C534.9 256.8 513.3 248.7 492.6 243.6C522.7 244.4 553 234.9 572.9 211.6C589.6 192.2 593.7 168.7 600.1 143.4C603.3 130.7 607.3 118.2 612.4 106.1C617.5 94 624.4 83.4 630.9 72C640.6 54.7 649.1 39.3 656.5 25.7C657.7 23.5 658.4 20.7 658.5 17.4C659.2 1.89997 635.2 0.499969 624.2 0.399969H623.8ZM71.6 66.2C69.7 67.6 67.3 68.4 64.7 68.1C60.4 67.6 57 64.1 56.5 59.8C55.8 54.1 60.3 49.3 65.9 49.3C71.5 49.3 74.8 53.1 75.3 57.9L155.1 88.8C156.5 89.3 157.4 90.7 157.4 92.2V113.6C157.4 116.2 155.2 118.3 152.5 118.2C150.1 118.1 148.2 115.9 148.2 113.5V96L71.6 66.3V66.2ZM161.9 169.5H138.2C137.4 171 136.1 172.3 134.6 173.2V181.9C137.6 183.6 139.6 186.9 139.4 190.6C139.2 195.4 135.2 199.3 130.4 199.6C125 199.9 120.5 195.6 120.5 190.1C120.5 184.6 122.5 183.4 125.3 181.8V173.1C122.1 171.3 120 167.7 120.5 163.7C121 159.4 124.5 155.8 128.8 155.4C132.8 154.9 136.4 157 138.1 160.2H164.1C165 160.2 166 160.6 166.7 161.3L187.5 182.1H245.5C248.2 182.1 250.3 184.3 250.1 187C250 189.4 247.8 191.3 245.4 191.3H185.3C184.3 191.3 183.3 190.9 182.7 190.2L161.9 169.5ZM252.7 215.8C255.2 215.8 257.3 217.8 257.3 220.4C257.3 223 255.2 225 252.7 225H191.9C190.3 227.9 187.2 229.8 183.6 229.8C178.4 229.8 174.2 225.6 174.2 220.3C174.2 215 178.4 210.9 183.6 210.9C188.8 210.9 190.3 212.8 191.9 215.7H252.7V215.8ZM140.5 289C140.7 284.2 144.7 280.3 149.5 280C153.2 279.8 156.5 281.8 158.2 284.8H165.8L195 255.6C195.7 254.9 196.6 254.5 197.6 254.5H267.5C270.2 254.5 272.3 256.7 272.1 259.4C272 261.8 269.8 263.7 267.4 263.7H199.9L170.7 292.9C170 293.6 169.1 294 168.1 294H158.2C156.6 296.9 153.5 298.8 149.9 298.8C144.5 298.8 140.2 294.3 140.5 288.9V289ZM147.4 348.1C147.2 342.7 151.5 338.2 156.9 338.2C162.3 338.2 159.2 338.4 160.3 338.9L182.1 320.9L186.5 317.3L196.6 308.9L204.4 302.5L215.8 293.1V280.1C215.8 278.8 216.3 277.7 217.2 276.8C218 276 219.2 275.5 220.5 275.5C221.8 275.5 223.8 276.5 224.6 278C224.9 278.6 225.1 279.4 225.1 280.1V295.6C225.1 296.7 224.6 297.7 223.8 298.4L216 304.9L189.4 327L186.9 329L166.5 345.9C166.5 346.5 166.6 347 166.6 347.6C166.6 353 162.1 357.3 156.7 357C151.9 356.8 147.9 352.9 147.7 348H147.4V348.1ZM238.5 388.3C238.5 389.4 238 390.4 237.2 391.1L220.5 404.8C220.5 405.3 220.6 405.9 220.6 406.5C220.6 411.9 216.1 416.2 210.7 415.9C205.9 415.7 201.9 411.7 201.7 406.9C201.5 401.5 205.8 397 211.2 397C216.6 397 213.6 397.2 214.7 397.7L229.4 385.6V361.5C229.4 358.9 231.6 356.7 234.3 356.9C236.7 356.9 238.6 359.2 238.6 361.7V388.2H238.5V388.3ZM297.6 270.5C297.9 270.8 298.1 271.1 298.1 271.5C298.5 274.9 295.4 277 292.7 278.9C292.2 279.2 292.4 280.1 293.1 280.1C296.4 280.4 297.9 282 297.6 284.9C297.4 286.9 296.1 288 294.6 289.7C293.5 290.9 293 292.7 293.3 294.3C293.6 296 294.1 297.7 294.6 299.3C295 300.5 295.4 301.8 295.3 303.1C295 306.3 292.8 309.5 290.7 311.8C288.6 314.1 285.7 315.6 282.7 316.5H282C276.7 316.7 271.5 316.9 266.3 317.1C265.2 317.1 264.1 317.1 263.1 317.1C262 317.1 260.9 317.4 259.9 317.8C258.9 318.2 257.9 318.8 257.1 319.5L218.5 353L203.7 365.9L169.4 395.7V399.6V400.3C169.4 400.3 169.4 400.5 169.3 400.7C168.1 404 165.1 406.5 161.5 406.8H160.5C159.9 406.8 159.2 406.8 158.6 406.6C158.3 406.6 157.9 406.4 157.6 406.3C157.5 406.3 157.4 406.3 157.3 406.3C157 406.3 156.7 406.1 156.5 405.9C155.8 405.6 155.2 405.2 154.6 404.7C154.3 404.4 153.9 404.1 153.6 403.8C153.5 403.6 153.3 403.5 153.2 403.3C153.1 403.3 153 403 152.9 402.9C152.2 401.9 151.7 400.8 151.4 399.6V399.3C151.4 398.9 151.3 398.6 151.2 398.2V395.2C151.5 394.1 151.9 393 152.5 392.1C152.5 392.1 152.6 391.9 152.7 391.8C152.7 391.8 152.8 391.6 152.9 391.5C152.9 391.5 153 391.3 153.1 391.2C153.2 391 153.4 390.9 153.5 390.8L153.7 390.6C153.9 390.4 154.2 390.1 154.5 389.9C154.5 389.9 154.7 389.9 154.8 389.7C154.8 389.7 155 389.7 155.1 389.5C155.4 389.3 155.7 389.1 156 389C156 389 156.2 389 156.3 388.8C157.1 388.4 158 388.1 159 388H161.7C162.4 388 163 388.3 163.6 388.5L165.3 387L167.5 385.1L168.1 384.6C170.1 382.9 172.1 381.2 174.1 379.4C177.7 376.3 181.4 373.1 185 369.9C189.1 366.4 193.1 362.8 197.2 359.3C199.1 357.7 200.9 356.1 202.7 354.5L210 348.2L217.4 341.8L235.3 326.3L236.7 325.1L250.5 313.1C250.6 313.1 250.7 312.9 250.9 312.7L252.9 311L256.6 307.8C256.8 307.6 257 307.5 257.2 307.4C258.8 306 260.6 305 262.5 304.3C264.1 303.7 265.7 303.1 267.2 302.3C274.7 298.4 279.9 291.6 282.4 283.6C283.6 279.6 284.2 275.5 284.5 271.4C285.1 261.1 282.2 251.1 278.6 241.5C276.3 235.4 273.2 229.5 271.3 223.3C269.4 217 268.3 210.3 267.3 203.7C266 195.3 264.7 187.4 261.5 180C255.6 166.6 244.5 154.3 231 146.3C223.8 142.1 215.7 138.9 207.3 138.5H135.7C134.7 138.5 133.8 138.1 133.1 137.5L108.9 114.4H104.2C102.5 117.4 99.2 119.4 95.5 119.2C95 119.2 94.5 119.2 94 119C89.9 118.1 86.7 114.5 86.5 110.2C86.3 105.4 89.6 101.4 94.1 100.4C94.7 100.3 95.3 100.2 96 100.2C99.6 100.2 102.6 102.2 104.3 105.1H111.3C112.2 105.1 113.2 105.4 113.8 106.1L138 129.2H207.7C216.9 129.7 226.4 132.7 235.8 138.3C250.9 147.2 263.3 161.1 270 176.2C276.6 191.2 275.9 208.2 281.7 223.4C283 226.7 284.9 229.7 287.3 232.3C290.1 235.4 293.5 238.4 297.1 240.4C306.9 245.9 297.4 251.1 294.1 255.2C289.9 260.4 293.5 265.6 298 269.8L297.6 270.5ZM456.2 407C456 411.8 452 415.8 447.2 416C441.8 416.2 437.3 411.9 437.3 406.6C437.3 401.3 437.3 405.4 437.3 404.9L420.6 391.2C419.8 390.5 419.3 389.5 419.3 388.4V361.9C419.3 359.4 421.2 357.3 423.6 357.1C426.3 356.9 428.5 359.1 428.5 361.7V385.8L443.2 397.9C444.3 397.5 445.4 397.2 446.7 397.2C452.1 397.2 456.5 401.7 456.2 407.1V407ZM510.5 348.1C510.3 352.9 506.3 356.9 501.5 357.1C496.1 357.3 491.6 353 491.6 347.7C491.6 342.4 491.6 346.5 491.6 346L471.2 329.1L468.7 327.1L442.1 305L434.3 298.5C433.5 297.8 433 296.8 433 295.7V280.2C433 279.4 433.2 278.7 433.5 278.1C434.3 276.6 435.8 275.6 437.6 275.6C439.4 275.6 440 276.1 440.9 276.9C441.7 277.7 442.3 278.9 442.3 280.2V293.2L453.7 302.6L461.5 309L471.6 317.4L476 321L497.8 339C498.9 338.6 500 338.3 501.2 338.3C506.6 338.3 510.9 342.8 510.7 348.2H510.4L510.5 348.1ZM499.6 284.8C501.3 281.8 504.6 279.8 508.3 280C513.1 280.2 517.1 284.2 517.3 289C517.5 294.4 513.2 298.9 507.9 298.9C502.6 298.9 501.2 297 499.6 294.1H489.7C488.7 294.1 487.8 293.7 487.1 293L457.9 263.8H390.4C387.9 263.8 385.8 261.9 385.7 259.5C385.5 256.8 387.7 254.6 390.3 254.6H460.2C461.2 254.6 462.1 255 462.8 255.7L492 284.9H499.6V284.8ZM400.5 220.4C400.5 217.8 402.6 215.8 405.1 215.8H465.9C467.5 212.9 470.6 211 474.2 211C479.4 211 483.6 215.2 483.6 220.4C483.6 225.6 479.4 229.9 474.2 229.9C469 229.9 467.5 227.9 465.9 225.1H405.1C402.5 225.1 400.5 223.1 400.5 220.5V220.4ZM537.3 190.2C537.3 195.6 532.9 199.9 527.4 199.7C522.6 199.5 518.6 195.5 518.4 190.7C518.2 186.9 520.2 183.7 523.2 182V173.3C521.7 172.5 520.4 171.2 519.6 169.6H495.9L475.1 190.3C474.5 191 473.5 191.4 472.5 191.4H412.4C409.9 191.4 407.8 189.5 407.7 187.1C407.5 184.4 409.6 182.2 412.3 182.2H470.3L491.1 161.4C491.8 160.7 492.7 160.3 493.7 160.3H519.7C521.5 157.1 525.1 155 529 155.5C533.3 156 536.8 159.5 537.3 163.8C537.8 167.8 535.7 171.3 532.5 173.2V181.9C535.4 183.5 537.3 186.6 537.3 190.2ZM564.2 119.7C563.7 119.8 563.2 119.9 562.7 119.9C559 120.1 555.7 118.1 554 115.1H549.3L525.1 138.2C524.4 138.9 523.5 139.2 522.5 139.2H450.9C442.5 139.6 434.4 142.8 427.2 147C413.8 155 402.6 167.3 396.7 180.7C393.5 188.1 392.2 196 390.9 204.4C389.9 211 388.8 217.6 386.9 224C384.9 230.2 381.9 236 379.6 242.2C376 251.7 373.1 261.8 373.7 272.1C373.9 276.2 374.5 280.3 375.8 284.3C378.3 292.3 383.5 299.1 391 303C392.5 303.8 394.1 304.5 395.7 305C397.6 305.7 399.5 306.7 401 308.1C401.2 308.3 401.4 308.5 401.6 308.6L405.3 311.8L407.3 313.5C407.4 313.5 407.5 313.7 407.7 313.9L421.5 325.9L422.9 327.1L440.8 342.6L448.2 349L455.5 355.3C457.4 356.9 459.2 358.5 461 360.1C465.1 363.6 469.1 367.2 473.2 370.7C476.8 373.9 480.5 377 484.1 380.2C486.1 381.9 488.1 383.6 490.1 385.4L490.7 385.9L492.9 387.8L494.6 389.3C495.2 389.1 495.8 388.9 496.5 388.8H499.2C500.2 388.8 501.1 389.2 501.9 389.6C501.9 389.6 502.1 389.6 502.2 389.8C502.5 389.8 502.8 390.1 503.1 390.3C503.1 390.3 503.3 390.3 503.4 390.5C503.4 390.5 503.6 390.5 503.7 390.7C504 390.9 504.2 391.1 504.5 391.4L504.7 391.6L505.1 392C505.1 392 505.1 392.2 505.3 392.3C505.3 392.3 505.3 392.5 505.5 392.6C505.5 392.6 505.5 392.8 505.7 392.9C506.3 393.8 506.8 394.9 507 396V399C507 399.4 507 399.8 506.8 400.1V400.4C506.5 401.6 506 402.7 505.3 403.7C505.3 403.7 505.1 404 505 404.1C505 404.3 504.7 404.4 504.6 404.6C504.3 404.9 504 405.2 503.6 405.5C503 406 502.4 406.4 501.7 406.7C501.4 406.7 501.2 406.9 500.9 407.1C500.9 407.1 500.7 407.1 500.6 407.1C500.3 407.1 499.9 407.3 499.6 407.4C499 407.4 498.3 407.6 497.7 407.6C497.1 407.6 497.4 407.6 497.2 407.6H496.7C493.1 407.2 490.1 404.8 488.9 401.5C488.9 401.5 488.9 401.3 488.9 401.1V400.4V396.5L454.6 366.7L439.8 353.8L401.2 320.3C400.4 319.6 399.4 319 398.4 318.6C397.4 318.2 396.3 317.9 395.2 317.9C394.1 317.9 393.1 317.9 392 317.9C386.8 317.7 381.6 317.5 376.3 317.3H375.6C372.5 316.5 369.7 314.9 367.6 312.6C365.5 310.3 363.3 307.1 363 303.9C362.9 302.6 363.3 301.3 363.7 300.1C364.2 298.5 364.7 296.7 365 295.1C365.3 293.5 364.8 291.7 363.7 290.5C362.2 288.8 360.9 287.6 360.7 285.7C360.4 282.7 361.9 281.1 365.2 280.9C365.9 280.9 366.1 280 365.6 279.7C362.9 277.7 359.9 275.6 360.2 272.3C360.2 271.9 360.4 271.6 360.7 271.3C365.2 267.2 368.8 261.9 364.6 256.7C361.3 252.7 351.8 247.4 361.6 241.9C365.2 239.9 368.6 236.8 371.4 233.8C373.8 231.2 375.7 228.2 377 224.9C382.8 209.6 382.1 192.7 388.7 177.7C395.4 162.5 407.8 148.7 422.9 139.8C432.4 134.2 441.8 131.1 451 130.7H520.7L544.9 107.6C545.6 106.9 546.5 106.6 547.4 106.6H554.4C556 103.7 559.1 101.7 562.7 101.7C566.3 101.7 564 101.7 564.6 101.9C569 102.9 572.4 106.9 572.2 111.7C572 116 568.8 119.6 564.7 120.5L564.3 119.7H564.2ZM601.4 59.7C600.9 64 597.5 67.5 593.2 68C590.6 68.3 588.2 67.6 586.3 66.1L509.7 95.8V113.3C509.7 115.8 507.8 117.9 505.4 118C502.7 118.2 500.5 116.1 500.5 113.4V92C500.5 90.5 501.4 89.1 502.8 88.6L582.6 57.7C583.1 52.9 587.1 49.1 592 49.1C596.9 49.1 602.1 53.9 601.4 59.6V59.7Z" fill="#0597B1"/>
</svg>
