<svg width="2404" height="356" viewBox="0 0 2404 356" fill="none" xmlns="http://www.w3.org/2000/svg">
<path d="M177.6 265.199L258.1 69.7993V211.699L202.6 346.599H154.7L54.1 120.899L54.3 355.599H0.299988L0 0.199219H59.4L177.6 265.299V265.199ZM345 0.199219V355.599H291V131.599V131.899C290.9 131.899 290.9 0.199219 290.9 0.199219H345Z" fill="#7CABD6"/>
<path d="M614.9 0.199219V54.1992H573.3C505 54.1992 449.5 109.699 449.5 177.899C449.5 246.099 505 301.599 573.3 301.599H614.9V355.599H573.3C475.3 355.599 395.5 275.899 395.5 177.899C395.5 79.8993 475.3 0.199219 573.3 0.199219H614.9ZM484.4 200.399V146.999H614.9V200.399H484.4Z" fill="#7CABD6"/>
<path d="M904 178.6C904 277 823.9 355.5 725.5 355.5H661.6V301.5H725.5C794.1 301.5 850 247.2 850 178.5C850 109.8 794.2 54 725.5 54H661.5V0H725.5C823.9 0 904 80.1 904 178.4V178.6ZM661.5 173.7C661.5 158.9 673.5 146.9 688.3 146.9C703.1 146.9 715.1 158.9 715.1 173.7C715.1 188.5 703.1 200.5 688.3 200.5C673.5 200.5 661.5 188.5 661.5 173.7Z" fill="#7CABD6"/>
<path d="M1292 177.899C1292 275.899 1212.6 355.599 1114.9 355.599C1017.2 355.599 937.801 275.899 937.801 177.899C937.801 79.8993 1017.3 0.199219 1114.9 0.199219C1212.5 0.199219 1292 79.8993 1292 177.899ZM1238 177.899C1238 109.799 1182.8 54.3993 1114.9 54.3993C1047 54.3993 991.801 109.799 991.801 177.899C991.801 245.999 1047 301.499 1114.9 301.499C1182.8 301.499 1238 246.099 1238 177.899ZM1084.8 172.899C1084.8 158.099 1096.8 146.099 1111.5 146.099C1126.2 146.099 1138.3 158.099 1138.3 172.899C1138.3 187.699 1126.3 199.699 1111.5 199.699C1096.7 199.699 1084.8 187.699 1084.8 172.899Z" fill="#A6A6A6"/>
<path d="M1571.4 109.301C1571.4 169.501 1522.6 218.501 1462.7 218.501H1429.3V164.301H1462.7C1492.9 164.301 1517.4 139.701 1517.4 109.401C1517.4 79.1008 1492.9 54.2007 1462.7 54.2007H1396.4V355.601H1342.4V0.300781H1462.7C1522.6 0.300781 1571.4 49.3008 1571.4 109.401V109.301Z" fill="#A6A6A6"/>
<path d="M1827.8 251.499C1827.5 308.899 1780.8 355.599 1723.6 355.599H1603V301.399H1723.6C1751.1 301.399 1773.7 278.899 1773.8 251.299C1773.8 237.799 1768.7 225.099 1759.2 215.499C1749.7 205.899 1737.1 200.599 1723.6 200.599H1700.4C1652.9 200.599 1613 166.999 1603 122.299C1599.6 110.699 1601.2 89.2993 1601.2 89.2993C1601.3 88.0993 1601.6 86.8992 1601.7 85.6992H1657C1656.6 86.8992 1656.2 88.0993 1656 89.2993C1652.2 109.599 1660.3 122.299 1660.3 122.299C1668.1 136.599 1683.1 146.399 1700.4 146.399H1723.6C1751.5 146.399 1777.8 157.299 1797.5 177.199C1817.2 197.099 1828 223.399 1827.8 251.399V251.499ZM1814.7 0.199219V54.4993H1612.3C1616.9 45.8993 1622.6 36.7992 1629.6 29.6992C1647.9 11.2992 1672 0.999316 1697.7 0.299316C1697.7 0.199316 1814.6 0.199219 1814.6 0.199219H1814.7Z" fill="#A6A6A6"/>
<path d="M2112.9 0.199219V355.599H2058.9V54.1992H2058.5C1984 54.1992 1923.4 114.799 1923.4 189.399V355.699H1869.4V189.399C1869.4 85.0993 1954.2 0.299316 2058.5 0.299316H2112.9V0.199219ZM1967.2 173.699C1967.2 158.899 1979.2 146.899 1994 146.899C2008.8 146.899 2020.8 158.899 2020.8 173.699C2020.8 188.499 2008.8 200.499 1994 200.499C1979.2 200.499 1967.2 188.499 1967.2 173.699Z" fill="#343434"/>
<path d="M2180.1 355.502V0.101562H2234.1V355.502H2180.1Z" fill="#343434"/>
<path d="M2316.2 0.599976V11.8H2294.4V68.6H2280.9V11.8H2259.1V0.599976H2316.1H2316.2ZM2389.7 68.6L2387.2 28.6C2387 23.4 2387 16.8 2386.7 9.59998H2385.9C2384.1 15.6 2382.1 23.6 2380.1 29.8L2367.9 67.6H2353.9L2341.7 28.8C2340.5 23.6 2338.5 15.6 2336.9 9.59998H2336.1C2336.1 15.8 2335.9 22.4 2335.6 28.6L2333.1 68.6H2320.1L2325.1 0.599976H2345.3L2357.1 33.8C2358.6 39 2359.9 44 2361.6 51H2361.8C2363.6 44.8 2365 39 2366.6 34L2378.4 0.5H2397.9L2403.1 68.5H2389.6L2389.7 68.6Z" fill="#343434"/>
</svg>
