<svg width="363" height="56" viewBox="0 0 363 56" fill="none" xmlns="http://www.w3.org/2000/svg">
<g clip-path="url(#clip0_28_71)">
<path d="M64.7104 10.4164C64.7104 10.5104 64.6343 10.5855 64.5403 10.5855H58.6964C58.6034 10.5855 58.5273 10.4916 58.5273 10.3976V4.55191C58.5273 4.45791 58.6213 4.38281 58.7153 4.38281H64.5594C64.6534 4.38281 64.7283 4.47671 64.7283 4.57071V10.4164H64.7104Z" fill="#4AF1C9"/>
<path d="M131.868 21.315C129.989 21.4653 126.663 20.9954 124.446 21.6721C118.095 23.6081 116.516 31.4274 119.786 36.7279C121.834 40.0737 125.179 40.6752 129.369 40.6C130.985 40.5624 133.56 40.5624 137.073 40.6C137.186 40.6 137.261 40.506 137.261 40.412V5.07497C137.261 4.92457 137.393 4.79297 137.543 4.79297H143.256C143.406 4.79297 143.519 4.92457 143.519 5.05617V46.7088C143.519 46.7839 143.462 46.8403 143.387 46.8403C135.326 46.8779 129.745 46.8591 126.663 46.8215C106.933 46.5208 107.008 15.3753 126.513 15.0934C128.223 15.0746 130.027 15.0746 131.906 15.0934C132.056 15.0934 132.188 15.225 132.188 15.3753V20.9954C132.188 21.1646 132.056 21.315 131.868 21.3338V21.315Z" fill="#4AF1C9"/>
<path d="M157.838 17.5376C159.999 16.0715 162.461 15.2632 165.186 15.1129C167.61 14.9625 169.695 15.0753 171.443 15.4324C177.024 16.5602 180.575 20.4886 182.304 25.9207C182.755 27.3117 182.962 29.4357 182.943 32.2739C182.905 35.958 182.905 40.7134 182.943 46.5591C182.943 46.7282 182.811 46.8598 182.642 46.8598H177.08C176.93 46.8598 176.798 46.7282 176.798 46.5779C176.798 39.3789 176.798 34.2287 176.798 31.1461C176.798 26.4095 173.999 21.9359 169 21.3908C163.457 20.7894 159.849 22.7818 158.196 27.3869C157.82 28.4582 157.632 29.9619 157.632 31.9168C157.669 36.8226 157.669 41.7096 157.632 46.5591C157.632 46.7282 157.5 46.8598 157.331 46.8598H151.525C151.374 46.8598 151.262 46.7282 151.262 46.5967V5.0944C151.262 4.9253 151.393 4.8125 151.544 4.8125H157.237C157.388 4.8125 157.519 4.9441 157.519 5.0757V17.3684C157.519 17.5376 157.707 17.6316 157.857 17.5376H157.838Z" fill="#4AF1C9"/>
<path d="M362.057 10.4306C362.057 10.5246 361.982 10.6186 361.869 10.6186H355.969C355.875 10.6186 355.781 10.5434 355.781 10.4494V4.54737C355.781 4.45337 355.856 4.35938 355.95 4.35938H361.851C361.945 4.35938 362.039 4.43458 362.039 4.52858V10.4306H362.057Z" fill="#4AF1C9"/>
<path d="M26.2471 19.9835C26.3041 19.9835 26.3231 19.9835 26.3411 19.9459C28.7841 16.5062 32.5991 14.6454 36.8831 14.6642C45.4701 14.7017 50.5061 21.694 50.6941 29.7952C50.7881 34.2875 50.8071 39.7948 50.7321 46.3359C50.7321 46.3923 50.6751 46.4487 50.6191 46.4487H44.7751C44.6061 46.4487 44.4931 46.3171 44.4931 46.1667C44.5121 35.9979 44.4931 30.5658 44.4931 29.9079C44.3811 27.1261 43.5161 24.8705 41.9191 23.1413C39.0441 20.0399 34.3651 20.2278 31.6781 23.4796C29.7431 25.8479 29.3291 28.4606 29.3671 31.7688C29.3671 33.3289 29.3671 38.1783 29.3671 46.3171C29.3671 46.3923 29.3101 46.4487 29.2351 46.4487C28.3521 46.4487 27.3561 46.4675 26.2471 46.4675C25.1391 46.4675 24.1241 46.4675 23.2601 46.4487C23.1851 46.4487 23.1281 46.3923 23.1281 46.3171C23.1281 38.1783 23.1281 33.3477 23.1281 31.7688C23.1661 28.4606 22.7711 25.8479 20.8361 23.4796C18.1671 20.2278 13.4701 20.0211 10.5951 23.1413C8.9981 24.8893 8.13309 27.1261 8.02009 29.9079C7.98309 30.5658 7.9831 35.9791 7.9831 46.1667C7.9831 46.3359 7.85109 46.4487 7.70109 46.4487H1.8571C1.8011 46.4487 1.7441 46.3923 1.7441 46.3359C1.6691 39.7948 1.6881 34.2875 1.8011 29.7952C1.9891 21.694 7.02509 14.7017 15.6311 14.6829C19.9151 14.6829 23.7291 16.5438 26.1721 19.9835C26.1911 20.0023 26.2291 20.0211 26.2661 20.0211L26.2471 19.9835Z" fill="#4AF1C9"/>
<path d="M64.6723 46.2404C64.6723 46.3344 64.5974 46.4095 64.5034 46.4095H58.6964C58.6034 46.4095 58.5273 46.3344 58.5273 46.2404V14.7942C58.5273 14.7002 58.6034 14.625 58.6964 14.625H64.5034C64.5974 14.625 64.6723 14.7002 64.6723 14.7942V46.2404Z" fill="#4AF1C9"/>
<path d="M88.3109 14.6423H88.5559C97.9509 14.3979 103.983 21.221 104.096 30.262C104.171 35.4686 104.171 40.7691 104.133 46.1637C104.133 46.3141 104.002 46.4268 103.851 46.4268H98.1579C97.9889 46.4268 97.8569 46.2953 97.8569 46.1261C97.8949 37.0287 97.8759 31.6905 97.8569 30.1117C97.7439 25.4126 94.6629 21.3338 89.8519 20.9203C89.5889 20.9015 89.0819 20.8827 88.3109 20.8827C87.5409 20.8827 87.0339 20.8827 86.7699 20.9203C81.9599 21.3338 78.8779 25.3938 78.7659 30.1117C78.7279 31.6905 78.7279 37.0287 78.7659 46.1261C78.7659 46.2953 78.6339 46.4268 78.4649 46.4268H72.7709C72.6209 46.4268 72.5079 46.2953 72.4899 46.1449C72.4519 40.7504 72.4519 35.4498 72.5269 30.2432C72.6399 21.2022 78.6899 14.3792 88.0859 14.6235H88.3109V14.6423Z" fill="#4AF1C9"/>
<path d="M210.602 45.9001C208.423 45.9941 206.356 45.9753 204.439 45.8437C197.543 45.3926 193.033 41.1822 191.192 34.6975C190.816 33.4005 190.647 31.5585 190.665 29.1902C190.684 25.7504 190.703 20.8446 190.665 14.4727C190.665 14.3035 190.797 14.1719 190.966 14.1719H196.528C196.697 14.1719 196.829 14.3035 196.829 14.4539C196.829 23.3445 196.829 28.5135 196.829 29.9984C196.885 34.9042 199.854 39.2086 205.003 39.6409C205.491 39.6785 207.352 39.6973 210.584 39.6785C210.753 39.6785 210.866 39.8101 210.866 39.9604V45.5993C210.866 45.7497 210.753 45.8813 210.584 45.8813L210.602 45.9001Z" fill="#4AF1C9"/>
<path d="M216.296 14.1548H221.952C222.102 14.1548 222.234 14.2864 222.234 14.4367C222.234 26.9551 222.234 35.639 222.234 40.5072C222.234 47.3115 218.551 53.3827 212.068 55.5066C210.772 55.9389 208.78 56.1457 206.13 56.1269C196.472 56.1081 191.417 56.0893 191.004 56.0893C190.835 56.0893 190.703 55.9577 190.703 55.7886V50.2437C190.703 50.0745 190.835 49.9429 191.004 49.9429C198.295 49.9241 202.673 49.9241 204.101 49.9429C207.051 49.9993 209.062 49.8114 210.133 49.3978C212.594 48.4392 214.323 46.6912 215.357 44.1913C215.826 43.0447 216.052 40.8643 216.033 37.6126C215.977 27.331 215.977 19.6057 216.014 14.4367C216.014 14.2676 216.165 14.1172 216.334 14.1172L216.296 14.1548Z" fill="#4AF1C9"/>
<path d="M245.496 36.5415C245.534 36.5415 245.571 36.5227 245.571 36.4851C251.002 22.1435 253.726 14.9445 253.745 14.9069C253.783 14.7378 253.933 14.625 254.083 14.625H260.792C260.961 14.625 261.055 14.7754 260.998 14.9257L249.198 46.09C249.123 46.2592 248.991 46.3719 248.803 46.3907C248.747 46.3907 247.638 46.3907 245.477 46.3907C243.316 46.3907 242.208 46.3907 242.151 46.3907C241.982 46.3719 241.832 46.2592 241.757 46.09L229.956 14.9257C229.9 14.7754 230.013 14.625 230.163 14.625H236.871C237.04 14.625 237.172 14.7566 237.209 14.9069C237.209 14.9633 239.953 22.1435 245.383 36.4851C245.383 36.5227 245.421 36.5415 245.477 36.5415H245.496Z" fill="#4AF1C9"/>
<path d="M336.387 21.3699C334.658 21.3699 330.806 21.0503 328.814 21.7458C320.659 24.5464 320.621 37.0084 328.269 39.997C329.453 40.4669 331.257 40.6737 333.681 40.6549C338.754 40.6173 341.347 40.5985 341.479 40.6173C341.648 40.6361 341.798 40.5045 341.798 40.3353V15.3738C341.798 15.2235 341.93 15.0919 342.08 15.0919H347.792C347.943 15.0919 348.074 15.2235 348.074 15.3738V46.5945C348.074 46.7449 347.962 46.8576 347.811 46.8576C343.264 46.8952 338.153 46.8952 332.497 46.8764C323.947 46.8764 318.723 42.8164 316.825 34.7528C316.093 31.6514 316.28 28.4749 317.37 25.2419C319.268 19.6406 322.97 16.3325 328.513 15.3175C330.843 14.8851 334.583 15.0731 336.462 15.0919C336.612 15.0919 336.744 15.2235 336.744 15.3738V21.0503C336.744 21.2195 336.593 21.3699 336.424 21.3699H336.387Z" fill="#4AF1C9"/>
<path d="M362.054 46.2404C362.054 46.3344 361.979 46.4095 361.885 46.4095H355.966C355.872 46.4095 355.797 46.3344 355.797 46.2404V14.7942C355.797 14.7002 355.872 14.625 355.966 14.625H361.885C361.979 14.625 362.054 14.7002 362.054 14.7942V46.2404Z" fill="#4AF1C9"/>
<path d="M285.785 37.5933L289.675 41.4842C289.9 41.7097 289.881 42.0668 289.637 42.2736C284.526 46.5968 278.889 47.6118 272.725 45.3374C269.155 44.0217 265.829 40.7699 264.232 37.0482C260.38 28.0824 265.134 17.9888 274.529 15.3385C285.992 12.1056 296.364 22.1052 294.372 33.5521C294.354 33.6837 294.241 33.7777 294.109 33.7777H274.511C274.341 33.7777 274.229 33.6461 274.229 33.4957V27.8193C274.229 27.6501 274.36 27.5185 274.529 27.5185H287.645C287.758 27.5185 287.852 27.4057 287.796 27.293C286.462 23.9096 283.549 21.5225 279.96 21.0902C273.684 20.3383 268.272 25.6953 269.23 32.0484C270.038 37.443 275.131 41.127 280.542 40.0932C282.478 39.7361 284.094 38.8903 285.353 37.5933C285.466 37.4618 285.672 37.4618 285.785 37.5933Z" fill="#4AF1C9"/>
<path d="M308.616 46.2392C308.616 46.3332 308.541 46.4271 308.428 46.4271H302.528C302.434 46.4271 302.34 46.3519 302.34 46.258V40.3559C302.34 40.262 302.415 40.168 302.509 40.168H308.409C308.503 40.168 308.597 40.2431 308.597 40.3371V46.2392H308.616Z" fill="#4AF1C9"/>
</g>
<defs>
<clipPath id="clip0_28_71">
<rect width="363" height="56" fill="white"/>
</clipPath>
</defs>
</svg>
