<svg width="1515" height="356" viewBox="0 0 1515 356" fill="none" xmlns="http://www.w3.org/2000/svg">
<path d="M129.402 0.299805V237.8C129.402 302.8 76.5016 355.7 11.5016 355.7H0.101562V301.7H11.5016C46.8016 301.7 75.4016 273 75.4016 237.8V0.299805H129.402Z" fill="#0489B7"/>
<path d="M421.498 124V236C421.498 302.1 367.698 355.8 301.698 355.8C235.698 355.8 181.898 302 181.898 236V124H235.898V236C235.898 272.3 265.398 301.8 301.698 301.8C337.998 301.8 367.498 272.3 367.498 236V124H421.498Z" fill="#0489B7"/>
<path d="M668.101 283.6C667.901 323.4 634.801 355.7 594.401 355.7H475.901V301.8H594.401C605.301 301.8 614.101 294 614.201 283.3C614.201 278.1 612.201 273.2 608.501 269.5C604.801 265.8 599.801 263.8 594.501 263.8H535.001C495.901 263.8 464.001 232.6 463.801 194.2C463.801 175.5 471.101 157.8 484.501 144.5C497.901 131.2 515.901 123.9 534.901 123.9H649.501V178H534.901C530.301 178 526.001 178.7 522.701 181.9C519.501 185.1 517.701 189.4 517.701 193.9C517.701 203.2 525.501 210.7 534.901 210.7H594.401C614.201 210.7 632.701 218.3 646.701 232.1C660.601 245.9 668.201 264.1 668.201 283.5L668.101 283.6Z" fill="#0489B7"/>
<path d="M827.798 301.8H861.898V355.8H827.798C762.798 355.8 709.898 302.9 709.898 237.9V0.400391H763.898V237.9C763.898 273.2 792.598 301.8 827.798 301.8ZM808.398 150.9C808.398 136.1 820.398 124.2 835.198 124.2C849.998 124.2 861.998 136.2 861.998 150.9C861.998 165.6 849.998 177.7 835.198 177.7C820.398 177.7 808.398 165.7 808.398 150.9Z" fill="#0489B7"/>
<path d="M908.398 355.7V123.9H962.398V355.7H908.398ZM908.598 54.2997C908.598 39.4997 920.598 27.5996 935.398 27.5996C950.198 27.5996 962.098 39.5997 962.098 54.2997C962.098 68.9997 950.098 81.0996 935.398 81.0996C920.698 81.0996 908.598 69.0997 908.598 54.2997Z" fill="#0489B7"/>
<path d="M1254.6 243.8V355.8H1200.6V243.8C1200.6 207.5 1171.1 178 1134.8 178C1098.5 178 1069 207.5 1069 243.8V355.8H1015V243.8C1015 177.7 1068.8 124 1134.8 124C1200.8 124 1254.6 177.7 1254.6 243.8Z" fill="#0489B7"/>
<path d="M1461.7 290.5L1491.6 334.6C1470.6 348.3 1445.8 355.6 1420 355.6C1351.2 355.6 1295.3 303.7 1295.3 239.8C1295.3 175.9 1351.2 124 1420 124C1464.9 124.3 1502.2 156.4 1509.5 200.5L1514.3 229.5L1398.5 268.8L1380.6 218.8L1451.1 195.1C1444.6 184.3 1433.1 177.1 1420.5 177C1381 177 1349.3 205.2 1349.3 239.8C1349.3 274.4 1381 302.6 1420 302.6C1459 302.6 1449.6 298.4 1461.7 290.5Z" fill="#0489B7"/>
</svg>
