<svg width="43" height="45" viewBox="0 0 43 45" fill="none" xmlns="http://www.w3.org/2000/svg">
<path d="M11.9968 37.6979C11.9733 37.7006 11.9628 37.6689 11.9837 37.6583C12.9857 37.0797 14.0792 36.6623 15.2642 36.3981C15.2982 36.3902 15.3244 36.3585 15.3244 36.3242C15.3244 34.0126 15.3244 31.3443 15.3244 28.322C15.3244 27.9733 15.382 27.6906 14.9712 27.6959C14.7175 27.6985 13.5376 27.6959 11.4291 27.6933C11.2669 27.6933 11.1021 27.6034 10.9268 27.4238C10.1813 26.655 9.13224 25.5745 7.78237 24.1796C7.75359 24.1505 7.7222 24.1241 7.6908 24.103C7.28009 23.8414 6.8249 23.7833 6.32 23.9313C6.28861 23.9392 6.25983 23.955 6.23367 23.9735C5.36515 24.6261 4.49924 25.1201 3.49468 24.8031C2.79358 24.5812 2.05324 24.0052 1.4751 23.4848C1.42016 23.4372 1.41493 23.3527 1.46202 23.2946C2.26514 22.3303 3.44236 21.7148 4.69806 22.1084C5.23434 22.2775 5.67646 22.5892 6.22059 22.9432C6.3043 22.9961 6.40371 23.0172 6.50051 22.9961C7.23561 22.8534 7.88177 23.0198 8.43637 23.498C8.56456 23.609 8.77646 23.8335 9.07207 24.177C9.7784 24.9933 10.6548 25.8413 11.3166 26.5071C11.5442 26.7369 11.8503 26.8373 12.2296 26.8109C13.0798 26.7528 14.0085 26.8241 14.9111 26.7897C15.3636 26.7713 15.7063 26.7765 15.9418 26.7977C16.1328 26.8162 16.2269 26.9298 16.2296 27.1385C16.2348 29.5875 16.2348 32.5912 16.2296 36.1525C16.2296 36.1789 16.2505 36.1974 16.2766 36.1947L17.4251 36.0626C17.446 36.0626 17.4617 36.0415 17.4617 36.0204C17.4643 32.5305 17.4643 29.5558 17.4617 27.0962C17.4617 26.9113 17.2864 26.6233 17.1216 26.4516C16.5827 25.8994 16.0386 25.313 15.484 24.6948C15.3715 24.5706 15.2145 24.4702 15.0131 24.3989C14.9608 24.3804 14.9058 24.3725 14.8483 24.3698C13.8882 24.3698 12.8732 24.3698 11.8032 24.3698C11.5599 24.3698 11.3454 24.2826 11.1597 24.1056C9.7627 22.7847 8.72152 21.7887 8.0335 21.1177C7.92886 21.0147 7.74574 20.9222 7.48675 20.8403C7.4292 20.8218 7.37165 20.8139 7.31148 20.8139H4.86287C4.82886 20.8139 4.79485 20.8245 4.76607 20.8456C3.70396 21.6276 2.71249 22.082 1.51696 21.3898C1.11409 21.1573 0.700752 20.8641 0.282186 20.5154C0.130456 20.3886 0.038894 20.2961 0.0101176 20.2353C-0.00819465 20.201 -0.000346541 20.1614 0.0231978 20.1323C1.05653 19.0122 2.2913 18.3992 3.78768 19.1522C3.95249 19.2341 4.3292 19.4665 4.9178 19.8523C4.98844 19.8998 5.07215 19.9236 5.15848 19.9236H6.08979C6.24414 19.9236 6.37232 19.8021 6.38279 19.6462C6.39587 19.4533 6.39586 18.5921 6.38802 17.0598C6.38802 16.9753 6.33046 16.8485 6.22059 16.6768C6.20489 16.6503 6.18397 16.6292 6.16042 16.6107C5.89882 16.4046 5.52211 16.0903 5.02768 15.6623C4.89164 15.5434 4.63266 15.4245 4.39721 15.3875C3.5627 15.2634 2.75696 15.0177 2.22852 14.3334C1.7524 13.7152 1.57451 12.434 1.5562 11.6255C1.5562 11.5727 1.59544 11.5252 1.65037 11.5199C2.11603 11.4776 2.60261 11.5252 3.10751 11.6599C4.56464 12.0456 5.00675 13.1922 5.25789 14.5606C5.27097 14.6293 5.30498 14.6901 5.3573 14.735C5.67384 15.0098 5.96422 15.2607 6.23105 15.4879C6.49266 15.7125 6.85106 15.8895 7.02633 16.1273C7.38211 16.6134 7.27485 17.0572 7.27485 17.6225C7.27485 17.8233 7.27485 18.4204 7.27485 19.4084C7.27485 19.6673 7.32194 19.9474 7.63063 19.913C8.0492 19.8655 8.28726 20.0689 8.58287 20.3648C8.71891 20.4995 9.73131 21.4691 11.6201 23.2682C11.8058 23.4452 12.1041 23.498 12.3918 23.4848C12.8156 23.4663 13.2368 23.4663 13.6606 23.4848C13.8228 23.4901 13.9771 23.461 14.1236 23.395C14.1576 23.3791 14.1681 23.3316 14.142 23.3025C12.35 21.3713 10.6312 19.5432 8.98574 17.8154C8.77908 17.5988 8.69798 17.3214 8.75292 17.0176C8.90464 16.1774 8.66397 15.4007 8.03612 14.8143C7.74836 14.5474 7.26439 14.167 6.84844 13.7152C6.71241 13.5673 6.49266 13.348 6.1892 13.0548C6.01654 12.8883 5.92759 12.6532 5.92236 12.3494C5.91451 11.7946 5.91451 10.8304 5.91713 9.45131C5.91713 9.33242 5.9773 9.07352 5.8962 8.96521C5.08785 7.87941 4.56464 6.83852 5.28405 5.56515C5.60059 5.00508 5.97207 4.50049 6.39587 4.05137C6.42464 4.01967 6.47435 4.01967 6.50574 4.04609C7.55738 5.013 8.16954 6.18598 7.62279 7.59673C7.46582 7.99829 7.18852 8.40778 6.91646 8.8384C6.87198 8.90709 6.85106 8.98634 6.85106 9.06824C6.85106 9.64945 6.85106 10.6824 6.85106 12.1724C6.85106 12.3204 6.89553 12.4366 6.98709 12.5264C7.78236 13.311 8.32127 13.8447 8.60642 14.1274C8.64043 14.1617 8.67705 14.1617 8.71629 14.1327C8.72937 14.1221 8.73722 14.1062 8.73722 14.0877V10.8832C8.73722 10.8462 8.72414 10.8092 8.70321 10.7775C7.95502 9.7287 7.44489 8.75386 8.11722 7.50691C8.44161 6.90721 8.81047 6.39469 9.22903 5.96935C9.27089 5.92708 9.33891 5.92444 9.38338 5.96407C10.3958 6.87022 10.9765 7.99036 10.5318 9.34299C10.3775 9.81324 10.0609 10.2597 9.76794 10.7379C9.70254 10.8436 9.66853 10.9677 9.66853 11.0919C9.66853 11.6652 9.66853 13.5699 9.66853 16.7983C9.66853 17.0625 9.74701 17.2791 9.90659 17.4455C10.6574 18.2302 11.3768 18.9963 12.0674 19.7413C12.1538 19.8338 12.3081 19.773 12.3081 19.6462V8.66404C12.3081 8.60592 12.2898 8.55044 12.2532 8.50288C11.4134 7.41444 10.9373 6.36299 11.6933 5.04735C12.002 4.51105 12.3604 4.03024 12.7633 3.60754C12.7842 3.58641 12.8156 3.58376 12.8365 3.60226C13.8019 4.38424 14.4533 5.60478 14.0766 6.87551C13.9065 7.45407 13.5586 7.96395 13.2237 8.47382C13.2002 8.51081 13.1871 8.55572 13.1871 8.60063C13.1871 10.1937 13.1871 14.2331 13.1871 20.7109C13.1871 20.7954 13.2263 20.9064 13.3022 21.0437C13.3153 21.0675 13.331 21.0886 13.3493 21.1071L17.4355 25.4345C17.4748 25.4741 17.5428 25.4477 17.5428 25.3896V23.4293C17.5428 23.3527 17.5114 23.2814 17.4565 23.2285C16.7292 22.5496 16.0517 21.934 15.4212 21.3819C15.1753 21.1653 15.0497 20.8747 15.0497 20.5074C15.0497 14.9358 15.0497 9.93741 15.0497 5.50703C15.0497 5.46476 15.0366 5.42249 15.0105 5.38815C14.1995 4.33405 13.5664 3.12937 14.2257 1.856C14.571 1.19025 14.9948 0.58791 15.4997 0.0436898C15.5494 -0.011789 15.6357 -0.0144313 15.6906 0.0357638C16.9045 1.15591 17.5506 2.59571 16.7214 4.18611C16.5252 4.56389 16.308 4.92846 16.0674 5.27983C16.0098 5.36437 15.981 5.46212 15.981 5.56251C15.981 10.6586 15.981 15.5302 15.981 20.1746C15.981 20.5497 16.1511 20.835 16.465 21.0781C16.6926 21.2551 16.9804 21.5193 17.3204 21.8706C17.3414 21.8918 17.3754 21.905 17.4225 21.905C17.5009 21.905 17.5663 21.8416 17.5663 21.7597V11.2002C17.5663 11.1606 17.5533 11.1236 17.5297 11.0945C17.153 10.619 16.8574 10.1382 16.6403 9.65209C16.2505 8.78028 16.4101 7.93224 16.9306 7.08157C17.2498 6.56113 17.5977 6.0988 17.9797 5.68932C18.0215 5.6444 18.0922 5.64176 18.1366 5.68139C19.3793 6.77512 20.049 8.29946 19.1726 9.88721C18.9764 10.2439 18.7697 10.582 18.5578 10.907C18.4872 11.0126 18.448 11.1394 18.448 11.2689V14.6056C18.448 14.7297 18.5866 14.7984 18.6834 14.7271C19.6042 14.0455 20.4257 13.4484 21.1425 12.9385C21.357 12.788 21.4616 12.5898 21.4642 12.3521C21.4695 8.7565 21.4695 4.76731 21.4695 0.384488C21.4695 0.347502 21.5009 0.321083 21.5375 0.326367C23.2248 0.58791 25.0273 0.889081 26.6388 1.43066C27.5491 1.73711 28.5485 2.15453 29.6341 2.68289C33.1187 4.37632 36.7027 7.1846 37.9244 11.0311C38.1493 11.7418 38.3298 12.5793 38.4633 13.5462C38.5496 14.1776 38.7275 14.875 38.7484 15.4879C38.7667 16.0665 38.7798 16.3862 38.7876 16.4496C38.9237 17.6807 39.4914 18.4626 40.3154 19.419C40.666 19.8258 41.0584 20.2036 41.4952 20.5523C41.8196 20.8113 42.2199 21.012 42.56 21.2736C43.6979 22.1586 42.3376 23.1916 41.7464 23.7754C40.959 24.5521 41.6025 25.8043 42.3376 26.3327C42.4867 26.441 42.5286 26.6127 42.4684 26.8505C42.3324 27.3604 42.0263 27.7329 41.5476 27.968C41.5083 27.9865 41.5136 28.0473 41.558 28.0578C41.7098 28.0948 41.8746 28.1688 42.0498 28.2745C42.471 28.5334 42.4841 29.0908 42.2382 29.4659C42.1963 29.5293 42.042 29.6984 41.7752 29.9705C41.7438 30.0022 41.7176 30.0419 41.6993 30.0815C41.5057 30.5359 41.6653 30.9876 41.817 31.4473C42.0394 32.1184 42.0682 32.5543 41.7438 33.1487C41.1342 34.2662 39.9727 34.7813 38.7353 34.8632C38.0002 34.9108 37.2389 34.8949 36.4568 34.8183C35.5804 34.7311 34.8243 34.7576 34.1206 35.0085C34.1075 35.0138 33.7936 35.1406 33.1762 35.389C30.9108 36.3004 29.3725 38.2897 28.2895 40.4085C27.5648 41.8271 27.2457 43.3515 27.3268 44.9815C27.3268 44.9894 27.3216 45 27.3111 45C27.3032 45 27.2928 44.9947 27.2902 44.9868C25.6028 40.1971 21.255 38.0625 16.5147 37.624C15.0262 37.4866 13.5246 37.513 12.0073 37.7006M15.6959 0.466385C15.6959 0.429399 15.6697 0.400339 15.6331 0.400339H15.6279C15.5939 0.400339 15.5625 0.426757 15.5625 0.463743L15.4133 5.25605C15.4133 5.29304 15.4395 5.3221 15.4761 5.3221H15.4814C15.5154 5.3221 15.5468 5.29568 15.5468 5.2587L15.6959 0.466385ZM22.3485 0.820393C22.3432 3.65774 22.3432 7.62051 22.3485 12.7061C22.3485 13.031 22.2412 13.2714 22.0267 13.4273C20.6428 14.4418 19.6435 15.1656 19.0287 15.5962C18.6363 15.871 18.4427 16.0903 18.4427 16.5658C18.4427 21.4453 18.4506 26.5599 18.4689 31.9149C18.4741 33.1275 18.4375 34.5436 18.4453 35.9754C18.4453 36.0045 18.4689 36.0283 18.4977 36.0283L19.5048 36.0415C19.531 36.0415 19.5519 36.0204 19.5519 35.9939C19.531 31.3734 19.5336 26.0236 19.5571 19.9447C19.5571 19.6383 19.6618 19.3899 19.8737 19.1997C20.2792 18.8325 21.6029 17.6437 23.8475 15.6306C24.1117 15.3928 24.2556 15.1947 24.2582 14.8618C24.266 13.2793 24.2608 11.9346 24.2451 10.8251C24.2425 10.6084 24.2399 10.4816 24.2399 10.4446C24.2294 7.07629 24.2399 4.09892 24.2686 1.5152C24.2686 1.47557 24.2451 1.43858 24.2085 1.42273L22.4505 0.751704C22.4034 0.733212 22.3511 0.770198 22.3511 0.820393M25.213 1.85864V14.2251C25.213 14.2859 25.2837 14.3149 25.3255 14.2753C25.629 14.0032 26.0685 13.6096 26.644 13.0944C26.8847 12.8804 27.0783 12.7536 27.073 12.3943C27.0469 9.50414 27.039 6.33129 27.0521 2.87839C27.0521 2.84405 27.0338 2.81235 27.005 2.79649L25.247 1.84015C25.2313 1.83222 25.213 1.84279 25.213 1.86128M28.0148 3.4913C28.0017 3.48073 27.9808 3.4913 27.9808 3.50979C28.0148 9.06295 28.0383 12.0799 28.054 12.5555C28.0671 13.0019 27.986 13.2265 27.6616 13.5198C25.2183 15.7204 22.9685 17.7414 20.907 19.5828C20.4126 20.024 20.4623 20.695 20.4911 21.2973C20.5015 21.543 20.5094 21.7914 20.5094 22.0424C20.5094 29.6192 20.5094 34.3164 20.5094 36.134C20.5094 37.9515 20.512 36.1392 20.5146 36.1419L21.4172 36.274C21.4276 36.274 21.4381 36.2661 21.4381 36.2555C21.4381 32.3588 21.4669 28.322 21.4145 24.2589C21.4067 23.6063 21.4067 22.8745 21.4172 22.0635C21.4198 21.7993 21.4878 21.4744 21.6709 21.3211C22.7696 20.3965 25.6918 17.929 30.4425 13.916C30.7146 13.6862 30.8584 13.4062 30.8715 13.0786C31.0363 8.93086 31.12 6.75662 31.1279 6.55056C31.1279 6.50565 31.1148 6.46338 31.0886 6.42903C30.1835 5.27983 29.1606 4.2997 28.0174 3.4913M12.9046 4.02495C12.9046 3.99325 12.881 3.96419 12.847 3.96419H12.8418C12.8104 3.96419 12.7816 3.98797 12.7816 4.02231L12.6456 8.41042C12.6456 8.44212 12.6691 8.47118 12.7031 8.47118H12.7084C12.7398 8.47118 12.7685 8.4474 12.7685 8.41306L12.9046 4.02495ZM6.53975 4.46614C6.53975 4.43444 6.5162 4.40538 6.48219 4.40538C6.4508 4.40538 6.42203 4.42916 6.42203 4.4635L6.28599 8.86217C6.28599 8.89388 6.30954 8.92294 6.34354 8.92294C6.37494 8.92294 6.40371 8.89916 6.40371 8.86482L6.53975 4.46614ZM18.1707 6.10409C18.1707 6.0671 18.1445 6.03804 18.1079 6.03804H18.1026C18.066 6.03804 18.0372 6.06446 18.0372 6.10145L17.8881 10.9202C17.8881 10.9572 17.9143 10.9862 17.9509 10.9862H17.9561C17.9928 10.9862 18.0215 10.9598 18.0215 10.9228L18.1707 6.10409ZM9.40169 6.34185C9.40169 6.32072 9.386 6.30223 9.36507 6.30223H9.31798C9.29705 6.30223 9.28135 6.31543 9.27874 6.33657L9.1427 10.7458C9.1427 10.7669 9.1584 10.7854 9.17933 10.7854H9.22642C9.24734 10.7854 9.26304 10.7722 9.26566 10.7511L9.40169 6.34185ZM32.0121 7.85035C31.9807 9.03125 31.9336 10.6903 31.8735 12.8302C31.8473 13.7892 31.4758 14.4682 30.7119 15.0256C29.7466 15.731 29.0821 16.3095 27.8814 17.3795C27.8421 17.4138 27.8683 17.4799 27.9206 17.4799H30.1626C30.2881 17.4799 30.4111 17.4297 30.5 17.3399L34.3404 13.4616C34.3613 13.4405 34.3718 13.4062 34.3639 13.3771C33.8695 11.4274 33.0533 9.63095 32.0461 7.84771C32.0383 7.8345 32.0173 7.83978 32.0147 7.85563M1.94599 11.7867C1.92767 11.7656 1.89366 11.7629 1.87274 11.7867C1.85181 11.8078 1.84919 11.8422 1.87274 11.8633L4.79747 15.0098C4.81578 15.0309 4.84979 15.0335 4.87071 15.0098C4.89164 14.9886 4.89426 14.9543 4.87071 14.9331L1.94599 11.7867ZM34.5915 14.6293C34.3953 14.8063 34.2907 14.9014 34.275 14.9173C32.7655 16.4443 31.7113 17.5063 31.1148 18.1034C30.8794 18.3411 30.6361 18.46 30.3902 18.4626C29.4458 18.4732 28.313 18.4759 26.9841 18.4679C26.767 18.4679 26.5184 18.5155 26.3641 18.6449C25.3648 19.493 24.0934 20.5708 22.5525 21.8733C22.4479 21.9605 22.3903 22.0899 22.3903 22.2246V24.8216C22.3903 24.9008 22.4819 24.9457 22.5447 24.8982C25.315 22.79 27.073 21.4532 27.8186 20.8826C28.0279 20.7214 28.2502 20.5999 28.4883 20.584C28.6217 20.5761 29.4065 20.5735 30.8401 20.5788C30.8741 20.5788 30.9108 20.5735 30.9448 20.5656C31.1148 20.5233 31.2456 20.4546 31.3398 20.3621C32.3705 19.3371 33.5189 18.1958 34.7903 16.9436C34.827 16.9066 34.8479 16.8564 34.8479 16.8036C34.8296 16.0744 34.7616 15.3558 34.6465 14.6478C34.6412 14.6214 34.6124 14.6108 34.5915 14.6267M34.7799 18.4125L32.7054 20.5074C32.687 20.5259 32.7001 20.5576 32.7263 20.5576L34.377 20.5788C34.4476 20.5788 34.5052 20.5286 34.5157 20.4599L34.8113 18.4257C34.8139 18.4072 34.793 18.3992 34.7799 18.4098M4.67451 20.3014C4.67451 20.2697 4.65097 20.2433 4.61958 20.2406L0.426068 20.1085C0.394676 20.1085 0.368516 20.1323 0.3659 20.164V20.1693C0.3659 20.201 0.389443 20.2274 0.420836 20.23L4.61434 20.3621C4.64574 20.3621 4.6719 20.3384 4.67451 20.3067V20.3014ZM23.3426 36.7178L23.4629 27.2336C23.4629 27.2019 23.4786 27.1728 23.5021 27.1517C23.714 26.98 23.905 26.8452 24.075 26.7501C25.9377 25.7039 28.0148 24.6657 30.3064 23.6354C30.6021 23.5033 30.8113 23.4346 30.9317 23.432C31.7505 23.4135 32.6164 23.4214 33.5294 23.4531C33.5556 23.4531 33.5765 23.4399 33.587 23.4161L34.2514 21.6434C34.2697 21.5959 34.2357 21.5457 34.186 21.5457H28.8101C28.7734 21.5457 28.7394 21.551 28.7028 21.5589C28.5642 21.5959 28.4569 21.6434 28.3837 21.6989C26.2385 23.3395 24.321 24.7978 22.6336 26.0685C22.6179 26.0791 22.6048 26.0923 22.5918 26.1082C22.461 26.2667 22.3956 26.4278 22.3956 26.5863C22.3929 29.3338 22.3903 32.6229 22.3956 36.4563C22.3956 36.4748 22.4086 36.4906 22.4269 36.4959L23.3138 36.7442C23.3295 36.7495 23.3452 36.7363 23.3452 36.7205M6.25198 23.4769C6.25198 23.4452 6.22844 23.4161 6.19443 23.4161L1.84134 23.2787C1.80995 23.2787 1.78118 23.3025 1.78118 23.3369V23.3421C1.78118 23.3738 1.80472 23.4029 1.83873 23.4029L6.19181 23.5403C6.22321 23.5403 6.25198 23.5165 6.25198 23.4822V23.4769ZM33.1448 24.3962L31.0651 24.383C31.0442 24.383 31.0232 24.3883 31.0023 24.3962C29.0324 25.305 27.1489 26.3512 25.3543 27.5347C25.0482 27.7382 24.5904 27.8016 24.5904 28.3326C24.5852 30.6204 24.525 32.8475 24.4936 35.344C24.4831 36.34 24.4779 36.8975 24.4832 37.0137C24.4832 37.0269 24.491 37.0401 24.5041 37.048L25.4563 37.5658C25.4746 37.5738 25.4956 37.5658 25.4956 37.5447C25.6604 36.3638 25.9507 35.3203 26.3615 34.4194C27.0364 32.9453 27.9363 31.6006 29.0612 30.38C30.6518 28.6575 31.9912 26.8373 33.0245 24.737C33.1056 24.5732 33.1527 24.4702 33.1684 24.4306C33.1736 24.4121 33.1605 24.3962 33.1422 24.3962H33.1448Z" fill="#4AF1C9"/>
</svg>
