<svg width="2062" height="2050" viewBox="0 0 2062 2050" fill="none" xmlns="http://www.w3.org/2000/svg">
<path d="M1032.11 2022.18C1583.69 2022.18 2030.83 1575.04 2030.83 1023.46C2030.83 471.882 1583.69 24.7402 1032.11 24.7402C480.533 24.7402 33.3906 471.882 33.3906 1023.46C33.3906 1575.04 480.533 2022.18 1032.11 2022.18Z" fill="#343434"/>
<path d="M1958.58 844.591H1757.26L1592.13 685.011V286.211L1620.13 309.931V673.131L1768.58 816.591H1950.67L1958.58 844.591Z" fill="#FFCD71"/>
<path d="M1942.44 771.46H1834.83L1713.46 649.41L1733.32 629.67L1846.48 743.46H1929.92L1942.44 771.46Z" fill="#FFCD71"/>
<path d="M1861.04 656.01L1679.75 474.04V343.74L1707.75 363.62V462.47L1880.88 636.25L1861.04 656.01Z" fill="#FFCD71"/>
<path d="M1973.73 934.51H1737.23V906.51L1967.78 904.84L1973.73 934.51Z" fill="#FFCD71"/>
<path d="M1835.95 1517.75L1807.95 1545.42V1290.14L1876.14 1225.9V1122.26H1904.14V1237.99L1835.95 1302.23V1517.75Z" fill="#FFCD71"/>
<path d="M1711.18 1654.45L1683.18 1641.28V1390.2L1765.44 1311.32L1764.8 1353.76L1711.18 1402.44V1654.45Z" fill="#FFCD71"/>
<path d="M311.49 1640.45L283.49 1609.82V1478.93L171.5 1354.64V1235.07H199.5V1343.89L311.49 1468.18V1640.45Z" fill="#FFCD71"/>
<path d="M586.811 1496.52L558.811 1515.15V1193.2L384.891 1010.86V740.83L458.021 658.97V281.08L486.021 264.33V669.85L412.891 751.71V999.45L586.811 1181.8V1496.52Z" fill="#FFCD71"/>
<path d="M257.529 939.121H95.1992V911.121H246.169L302.969 862.261V701.291L374.359 620.911V355.931L403.829 337.371V631.151L332.429 711.531V874.681L257.529 939.121Z" fill="#FFCD71"/>
<path d="M216.73 778.88H188.73V707L292.82 590.39V537.1H320.82V601.07L216.73 717.68V778.88Z" fill="#FFCD71"/>
<path d="M334.068 995.891H88.418V1023.89H334.068V995.891Z" fill="#FFCD71"/>
<path d="M1983.01 985.17H1755.07V1013.17H1983.01V985.17Z" fill="#FFCD71"/>
<path d="M1592.82 1574.19V1295.1L1620.82 1296.48V1598.43L1592.82 1574.19Z" fill="#FFCD71"/>
<path d="M1501.11 1515.88V1366.07H1529.11V1542.21L1501.11 1515.88Z" fill="#FFCD71"/>
<path d="M470.219 1566.69V1408.03H498.219V1549.98L470.219 1566.69Z" fill="#FFCD71"/>
<path d="M385.168 1626.51V1497.6H413.168V1610.55L385.168 1626.51Z" fill="#FFCD71"/>
<path d="M1701.16 658.19C1677.19 658.19 1657.7 638.689 1657.7 614.729C1657.7 590.769 1677.2 571.27 1701.16 571.27C1725.12 571.27 1744.62 590.769 1744.62 614.729C1744.62 638.689 1725.12 658.19 1701.16 658.19ZM1701.16 596.26C1690.98 596.26 1682.7 604.54 1682.7 614.72C1682.7 624.9 1690.98 633.18 1701.16 633.18C1711.34 633.18 1719.62 624.9 1719.62 614.72C1719.62 604.54 1711.34 596.26 1701.16 596.26Z" fill="#FFCD71"/>
<path d="M1704.99 966.17C1679.9 966.17 1659.5 945.76 1659.5 920.67C1659.5 895.58 1679.91 875.18 1704.99 875.18C1730.07 875.18 1750.48 895.59 1750.48 920.67C1750.48 945.75 1730.07 966.17 1704.99 966.17ZM1704.99 901.35C1694.33 901.35 1685.66 910.02 1685.66 920.68C1685.66 931.34 1694.33 940.01 1704.99 940.01C1715.65 940.01 1724.32 931.34 1724.32 920.68C1724.32 910.02 1715.65 901.35 1704.99 901.35Z" fill="#FFCD71"/>
<path d="M187.809 1243.16C186.739 1243.16 185.659 1243.12 184.579 1243.05C159.559 1241.31 140.609 1219.53 142.349 1194.51C143.189 1182.39 148.709 1171.32 157.879 1163.34C167.049 1155.36 178.779 1151.44 190.899 1152.28C215.919 1154.02 234.869 1175.8 233.129 1200.82C232.289 1212.94 226.769 1224.01 217.599 1231.99C209.249 1239.26 198.769 1243.16 187.809 1243.16ZM187.729 1178.33C177.679 1178.33 169.169 1186.14 168.459 1196.32C167.719 1206.95 175.769 1216.2 186.399 1216.94C191.549 1217.3 196.529 1215.63 200.429 1212.24C204.319 1208.85 206.669 1204.15 207.029 1199C207.769 1188.37 199.719 1179.12 189.089 1178.38C188.639 1178.35 188.179 1178.33 187.739 1178.33H187.729Z" fill="#FFCD71"/>
<path d="M204.009 855.781C202.939 855.781 201.859 855.741 200.779 855.671C188.659 854.831 177.589 849.311 169.609 840.141C161.629 830.971 157.709 819.251 158.549 807.121C159.389 795.001 164.909 783.931 174.079 775.951C183.249 767.971 194.969 764.041 207.099 764.891C219.219 765.731 230.289 771.251 238.269 780.421C246.249 789.591 250.169 801.311 249.329 813.441C248.489 825.561 242.969 836.631 233.799 844.611C225.449 851.881 214.969 855.781 204.009 855.781ZM203.919 790.961C199.259 790.961 194.809 792.621 191.259 795.711C187.369 799.101 185.019 803.801 184.659 808.951C184.299 814.101 185.969 819.081 189.359 822.971C192.749 826.861 197.449 829.211 202.599 829.571C207.739 829.921 212.729 828.261 216.619 824.871C220.509 821.481 222.859 816.781 223.219 811.631C223.579 806.481 221.909 801.501 218.519 797.611C215.129 793.721 210.429 791.371 205.279 791.011C204.819 790.981 204.359 790.961 203.909 790.961H203.919Z" fill="#FFCD71"/>
<path d="M1885.97 1135.35C1860.88 1135.35 1840.47 1114.94 1840.47 1089.86C1840.47 1064.78 1860.88 1044.36 1885.97 1044.36C1911.06 1044.36 1931.46 1064.77 1931.46 1089.86C1931.46 1114.95 1911.05 1135.35 1885.97 1135.35ZM1885.97 1070.53C1875.31 1070.53 1866.64 1079.2 1866.64 1089.86C1866.64 1100.52 1875.31 1109.19 1885.97 1109.19C1896.63 1109.19 1905.3 1100.52 1905.3 1089.86C1905.3 1079.2 1896.63 1070.53 1885.97 1070.53Z" fill="#FFCD71"/>
<path d="M536.75 401.06C536.75 401.06 644.79 259.42 896.45 369.44C861.86 305.54 607.24 193.87 536.75 401.06Z" fill="#FFCD71"/>
<path d="M615.801 260.301C615.801 260.301 811.241 159.731 1023.37 378.441C996.361 299.391 927.191 240.751 848.791 214.401C770.391 188.051 646.321 210.011 615.801 260.301Z" fill="#FFCD71"/>
<path d="M1116.26 357.36C1116.26 357.36 983.177 137.32 724.938 172.9C760.507 141.94 896.878 124.15 1006.9 198.59C1116.92 273.03 1116.26 357.36 1116.26 357.36Z" fill="#FFCD71"/>
<path d="M900.18 113.61C900.18 113.61 1099.13 134.69 1194.66 331.67C1191.37 220.99 1099.79 91.2102 900.18 113.61Z" fill="#FFCD71"/>
<path d="M1093.86 111.061C1093.86 111.061 1252.63 169.601 1246.04 327.051C1267.12 285.551 1296.11 134.861 1093.86 111.061Z" fill="#FFCD71"/>
<path d="M1260.9 154.451C1260.9 154.451 1339.59 242.731 1312.58 348.131C1355.4 274.351 1360.09 208.471 1260.9 154.451Z" fill="#FFCD71"/>
<path d="M1374.51 229.551C1374.51 229.551 1384.39 309.261 1371.22 352.081C1397.57 334.951 1429.19 277.641 1374.51 229.551Z" fill="#FFCD71"/>
<path d="M1428.75 343.74L1446.32 321.34C1446.32 321.34 1525.81 364.82 1524.94 441.24C1493.32 381.51 1436.66 345.06 1428.76 343.74H1428.75Z" fill="#FFCD71"/>
<path d="M1417.77 393.371L1524.94 520.301C1524.94 520.301 1540.74 429.831 1417.77 393.371Z" fill="#FFCD71"/>
<path d="M1417.77 443.439C1417.77 443.439 1488.93 482.089 1524.94 545.329V568.609V572.119C1524.94 572.119 1489.36 531.279 1415.57 460.129L1417.77 443.439Z" fill="#FFCD71"/>
<path d="M1423.92 501.85V529.52L1519.22 625.7C1519.22 625.7 1525.37 606.81 1519.22 592.32C1513.07 577.83 1459.49 518.1 1423.92 501.85Z" fill="#FFCD71"/>
<path d="M1423.92 567.951V589.911L1513.52 672.701C1513.52 672.701 1520.33 649.861 1515.5 638.661C1484.54 605.501 1437.98 571.901 1423.93 567.951H1423.92Z" fill="#FFCD71"/>
<path d="M1477.72 661.281V726.941L1504.07 735.721L1508.9 731.551V680.821L1477.72 661.281Z" fill="#FFCD71"/>
<path d="M770.73 573.25C771.3 585.07 775.67 596.88 786.31 603.26C796.95 609.64 813.461 611.79 825.521 608.4C841.311 603.96 852.671 587.84 852.671 571.6" stroke="white" stroke-miterlimit="10"/>
<path d="M1382 601.58C1374.42 566.33 1377.39 518.57 1376.73 446.44C1375.74 374.3 1263.31 376 1263.31 376L1262.73 547.2C1262.73 547.2 1289.95 572.52 1295.67 579.15C1301.27 587.38 1292.05 600.56 1280.85 595.62C1269.65 590.68 1234.73 551.15 1234.73 551.15V383.49C1234.73 383.49 1112.52 426.64 1012.06 426.31C911.59 425.98 826.61 397.98 826.61 397.98L826.31 530.09C843.11 536.35 852.66 550.84 852.66 571.59C852.66 592.34 834.87 609.8 818.07 609.8C801.27 609.8 770.64 608.48 770.64 573.24C770.64 538 799.63 530.75 799.63 530.75C799.63 530.75 793.37 457.95 796.67 389.44C712.02 376.92 697.19 397.67 688.96 422.71C680.73 447.74 684.68 544.92 684.68 583.45C684.68 621.98 659.65 642.08 640.54 657.89C621.44 673.7 624.4 721.13 624.4 721.13C624.4 721.13 640.87 715.2 681.39 710.59C706.09 679.63 726.52 656.24 817.43 664.8C935.35 677.32 953.47 727.06 964.67 732.98C974.55 735.62 979.16 711.24 984.1 694.11C989.04 676.98 998.92 670.39 998.26 678.63C999.58 725.73 998.92 740.56 1006.49 740.56H1054.58C1062.81 740.56 1055.57 673.03 1065.12 676C1074.67 678.96 1080.6 733.64 1092.13 730.68C1097.73 728.7 1127.38 674.35 1227.84 665.13C1328.31 655.91 1370.47 690.49 1384.3 712.23C1420.2 716.51 1435.69 725.74 1435.69 725.74V692.47C1435.69 659.2 1389.57 636.8 1382 601.56V601.58ZM1094.11 546.24C1075.99 549.2 977.18 556.12 954.12 546.24C942.92 539.65 944.57 528.78 957.74 529.44C970.92 530.1 1009.93 530.63 1023.37 530.43C1063.47 529.83 1095.42 524.83 1103.33 528.12C1111.24 531.41 1112.22 543.27 1094.11 546.24Z" fill="#FFCD71"/>
<path d="M581.898 659.221V723.451L552.918 733.661V680.631L581.898 659.221Z" fill="#FFCD71"/>
<path d="M542.711 640.44V672.72L641.201 585.76V565.67C641.201 565.67 618.801 572.26 542.711 640.44Z" fill="#FFCD71"/>
<path d="M540.73 619.2L633.95 525.16L637.24 502.43C637.24 502.43 593.1 520.38 562.14 560.82C528.21 605.21 540.73 619.21 540.73 619.21V619.2Z" fill="#FFCD71"/>
<path d="M535.129 565.67V535.7C535.129 535.7 619.449 433.26 643.499 444.13C651.409 449.73 626.369 478.06 599.359 500.13C572.349 522.2 535.129 565.68 535.129 565.68V565.67Z" fill="#FFCD71"/>
<path d="M533.81 500.121L642.84 388.781C642.84 388.781 605.29 372.641 564.11 419.411C522.94 466.181 533.81 500.111 533.81 500.111V500.121Z" fill="#FFCD71"/>
<path d="M1481.81 862.79V813.38C1481.81 813.38 1530.56 744.87 1569.43 759.36C1608.3 773.85 1601.71 864.11 1577.34 947.11C1552.96 1030.12 1513.44 1124.98 1452.83 1107.85C1460.74 1049.88 1458.1 1017.6 1470.62 980.05C1483.14 942.5 1490.38 920.68 1490.38 920.68C1490.38 920.68 1519.37 944.48 1490.38 1013.87C1515.41 1014.31 1556.7 929.11 1513.66 874.21C1542.21 832.93 1554.5 830.29 1554.5 830.29L1565.48 868.06C1565.48 868.06 1584.37 815.8 1557.14 794.71C1524.64 808.32 1490.82 859.71 1481.82 862.78L1481.81 862.79Z" fill="#FFCD71"/>
<path d="M576.19 862.351L579.7 815.801C579.7 815.801 539.29 752.561 497.13 755.191C454.97 757.821 459.8 846.101 480.88 933.501C501.96 1020.9 555.98 1142.12 604.29 1103.91C601.65 1020.46 579.7 937.021 574.86 925.161C570.02 913.301 539.77 929.181 571.79 1010.8C570.91 1016.95 536.22 1005.09 526.99 928.231C524.79 902.761 537.31 883.211 544.78 878.381C547.63 873.441 524.91 839.181 511.62 832.371C503.82 839.731 502.51 863.881 497.02 864.321C491.53 864.761 486.37 839.181 488.13 821.721C489.89 804.261 497.46 795.481 503.72 794.491C509.98 793.501 549.84 819.191 576.19 862.351Z" fill="#FFCD71"/>
<path d="M1386.39 780.221C1385.95 740.691 1319.19 735.911 1254.63 736.631C1107.06 738.281 1105.3 783.291 1111.01 825.901C1127.7 945.801 1178.65 962.051 1266.92 963.811C1390.77 963.371 1386.82 819.76 1386.38 780.23L1386.39 780.221ZM1187.44 883.43C1218.18 897.04 1293.29 890.461 1293.29 890.461C1246.74 936.581 1184.37 893.53 1187.44 883.43ZM1361.8 836.43C1333.69 841.26 1285.38 811.401 1285.38 811.401C1285.38 811.401 1277.04 850.621 1242.34 850.621C1207.64 850.621 1199.3 820.621 1199.74 809.641C1176.46 817.111 1166.8 838.63 1158.46 843.02C1150.12 847.41 1130.35 846.971 1136.5 824.131C1142.65 801.291 1178.22 774.5 1243.66 774.5C1309.1 774.5 1364.88 812.71 1361.8 836.43Z" fill="#FFCD71"/>
<path d="M795.098 963.801C883.378 962.041 934.318 945.791 951.008 825.891C956.718 783.291 954.958 738.271 807.388 736.621C742.828 735.901 676.068 740.681 675.628 780.211C675.188 819.741 671.238 963.351 795.088 963.791L795.098 963.801ZM768.748 890.451C768.748 890.451 843.848 897.041 874.598 883.421C877.668 893.521 815.308 936.561 768.748 890.451ZM818.378 774.511C883.818 774.511 919.388 801.301 925.538 824.141C931.688 846.981 911.928 847.421 903.578 843.031C895.238 838.641 885.568 817.121 862.298 809.651C862.738 820.631 854.388 850.631 819.698 850.631C784.998 850.631 776.658 811.411 776.658 811.411C776.658 811.411 728.348 841.281 700.238 836.441C697.168 812.721 752.938 774.511 818.378 774.511Z" fill="#FFCD71"/>
<path d="M1031.02 786.391V786.421C1030.96 786.421 1030.91 786.411 1030.86 786.411C1030.81 786.401 1030.75 786.391 1030.7 786.391C1027.03 785.961 1026.09 786.041 1030.86 786.041C1030.91 786.041 1030.97 786.161 1031.02 786.391Z" stroke="white" stroke-miterlimit="10"/>
<path d="M1031.02 786.391C1031.02 786.391 1030.91 786.391 1030.86 786.411C1030.81 786.411 1030.76 786.421 1030.7 786.421V786.391C1030.75 786.161 1030.81 786.041 1030.86 786.041C1035.63 786.041 1034.69 785.961 1031.02 786.391Z" stroke="white" stroke-miterlimit="10"/>
<path d="M1419 1052.19C1419 1052.19 1419.22 1140.25 1415.71 1185.48C1412.2 1230.71 1388.92 1293.57 1340.61 1329.97C1342.81 1295.71 1359.06 1288.03 1370.91 1169.12C1376.62 1086.22 1388.04 1072.17 1419 1052.19Z" fill="#FFCD71"/>
<path d="M1431.85 774.51C1429.22 874.1 1408.57 969.18 1299.22 993.78C1189.86 1018.37 1147.69 977.96 1113.88 945.9C1116.07 978.4 1089.28 1002.12 1089.28 986.75C1089.28 925.7 1064.69 824.69 1063.37 804.92C1062.46 791.28 1039.77 787.47 1031.02 786.42C1030.96 786.42 1030.91 786.41 1030.86 786.41C1030.81 786.41 1030.76 786.42 1030.7 786.42C1021.95 787.47 999.259 791.28 998.349 804.92C997.029 824.69 972.439 925.7 972.439 986.75C972.439 1002.12 945.649 978.4 947.839 945.9C914.029 977.96 871.859 1018.37 762.499 993.78C653.149 969.18 632.499 874.1 629.869 774.51C581.999 853.67 610.099 963.91 657.099 1012.22C704.089 1060.53 706.728 1082.93 710.678 1137.83C714.628 1192.73 726.439 1307.15 776.529 1376.98C828.599 1435.93 891.209 1523.52 1030.86 1523.52C1170.51 1523.52 1233.12 1435.93 1285.19 1376.98C1335.28 1307.15 1347.09 1192.73 1351.04 1137.83C1354.99 1082.93 1357.63 1060.53 1404.62 1012.22C1451.62 963.91 1479.72 853.67 1431.85 774.51ZM933.678 1003.44C933.678 1003.44 904.689 1048.56 915.559 1065.69C925.769 1072.28 949.819 1060.42 973.539 1075.9C997.249 1091.39 1007.81 1093.03 1030.86 1093.03C1053.91 1093.03 1064.47 1091.39 1088.18 1075.9C1111.9 1060.42 1135.95 1072.28 1146.16 1065.69C1157.03 1048.56 1128.04 1003.44 1128.04 1003.44C1190.63 999.81 1191.28 1069.65 1164.93 1094.02C1138.58 1118.4 1115.52 1097.32 1085.22 1123.67C1054.92 1150.02 1030.86 1145.08 1030.86 1145.08C1030.86 1145.08 1006.8 1150.02 976.499 1123.67C946.199 1097.32 923.139 1118.4 896.789 1094.02C870.439 1069.65 871.088 999.81 933.678 1003.44ZM790.059 1238.29C762.059 1224.13 750.199 1185.26 756.459 1159.89C766.339 1128.27 842.099 1099.94 842.099 1099.94C841.109 1112.79 802.239 1150.34 792.359 1166.15C782.479 1181.96 786.758 1200.08 790.048 1238.29H790.059ZM1025.6 1345.02C972.899 1345.02 936.659 1323.28 926.779 1302.86C960.049 1309.12 996.249 1312.74 1032.19 1312.74C1063.81 1312.74 1117.83 1310.1 1134.96 1301.21C1110.91 1338.43 1078.3 1345.02 1025.6 1345.02ZM1229.49 1221.17C1211.7 1232.7 1155.05 1259.71 1028.89 1259.71C902.729 1259.71 846.079 1232.7 828.289 1221.17C810.499 1209.64 815.438 1188.56 830.928 1194.16C866.558 1213.6 964.309 1229.21 1028.95 1229.72C1030.01 1229.72 1031.05 1229.73 1032.09 1229.73C1096.63 1229.53 1190.86 1213.8 1226.86 1194.16C1242.34 1188.56 1247.28 1209.64 1229.5 1221.17H1229.49ZM1271.66 1238.29C1274.95 1200.08 1279.24 1181.96 1269.35 1166.15C1259.47 1150.34 1220.6 1112.79 1219.61 1099.94C1219.61 1099.94 1295.37 1128.27 1305.25 1159.89C1311.51 1185.25 1299.65 1224.12 1271.65 1238.29H1271.66Z" fill="#FFCD71"/>
<path d="M642.71 1052.19C642.71 1052.19 642.49 1140.25 646 1185.48C649.51 1230.71 672.79 1293.57 721.1 1329.97C718.9 1295.71 702.65 1288.03 690.8 1169.12C685.09 1086.22 673.67 1072.17 642.71 1052.19Z" fill="#FFCD71"/>
<path d="M1696.46 1692.09L1567.34 1616.33C1567.34 1616.33 1510.68 1805.4 1490.26 1842.29C1608.84 1784.32 1696.46 1692.09 1696.46 1692.09Z" fill="#FFCD71"/>
<path d="M1490.26 1560.33L1530.45 1586.02C1530.45 1586.02 1461.28 1819.23 1421.09 1878.52C1369.7 1908.17 1358.51 1905.53 1358.51 1905.53C1358.51 1905.53 1440.86 1792.22 1490.27 1560.32L1490.26 1560.33Z" fill="#FFCD71"/>
<path d="M1390.79 1396.95C1390.79 1396.95 1409.89 1491.16 1452.72 1541.22C1425.05 1649.26 1326.89 1902.24 1275.51 1933.86C1230.71 1858.1 1123.99 1765.87 1123.99 1765.87C1123.99 1765.87 1327.56 1639.38 1383.55 1482.59C1394.75 1427.25 1390.8 1396.95 1390.8 1396.95H1390.79Z" fill="#FFCD71"/>
<path d="M1193.7 1905.1L1164.71 1957.58L1228.83 1942.65L1193.7 1905.1Z" fill="#FFCD71"/>
<path d="M1169.1 1870.62C1169.1 1870.62 1137.26 1915.64 1117.49 1956.7C1072.47 1960.65 1049.42 1963.51 1049.42 1963.51L1048.32 1845.81L1092.02 1795.3L1169.1 1870.62Z" fill="#FFCD71"/>
<path d="M362.418 1692.09L491.538 1616.33C491.538 1616.33 548.198 1805.4 568.618 1842.29C450.038 1784.32 362.418 1692.09 362.418 1692.09Z" fill="#FFCD71"/>
<path d="M568.62 1560.33L528.43 1586.02C528.43 1586.02 597.6 1819.23 637.79 1878.52C689.18 1908.17 700.37 1905.53 700.37 1905.53C700.37 1905.53 618.02 1792.22 568.61 1560.32L568.62 1560.33Z" fill="#FFCD71"/>
<path d="M668.098 1396.95C668.098 1396.95 648.998 1491.16 606.168 1541.22C633.838 1649.26 731.998 1902.24 783.378 1933.86C828.178 1858.1 934.898 1765.87 934.898 1765.87C934.898 1765.87 731.328 1639.38 675.338 1482.59C664.138 1427.25 668.088 1396.95 668.088 1396.95H668.098Z" fill="#FFCD71"/>
<path d="M865.181 1905.1L894.171 1957.58L830.051 1942.65L865.181 1905.1Z" fill="#FFCD71"/>
<path d="M889.781 1870.62C889.781 1870.62 921.621 1915.64 941.391 1956.7C986.411 1960.65 1009.46 1963.51 1009.46 1963.51L1010.56 1845.81L966.861 1795.3L889.781 1870.62Z" fill="#FFCD71"/>
<path d="M1348.52 1465.36C1346.76 1513.23 1283.08 1590.09 1176.79 1675.29C1074.22 1744.83 1031.75 1803.61 1030.88 1804.83H1030.87H1030.86C1029.99 1803.61 987.519 1744.83 884.949 1675.29C778.659 1590.09 714.979 1513.23 713.219 1465.36C711.469 1417.49 712.78 1392.89 712.78 1392.89C712.78 1392.89 752.749 1428.91 806.329 1491.71C859.909 1554.51 884.069 1561.54 895.929 1586.14C907.789 1610.73 933.479 1675.29 937.759 1677.49C942.039 1679.68 952.139 1677.05 949.509 1661.24C946.989 1646.17 932.499 1588.09 931.339 1583.72C932.249 1585.34 943.219 1603.52 1030.87 1605.46C1118.52 1603.52 1127.48 1596.43 1128.39 1594.81C1127.23 1599.18 1114.74 1646.17 1112.23 1661.24C1109.59 1677.05 1119.7 1679.68 1123.98 1677.49C1128.26 1675.29 1153.95 1610.73 1165.81 1586.14C1177.67 1561.54 1201.83 1554.51 1255.41 1491.71C1308.99 1428.91 1348.95 1392.89 1348.95 1392.89C1348.95 1392.89 1350.27 1417.49 1348.52 1465.36Z" fill="#FFCD71"/>
<path d="M1030.86 1804.83H1030.87V1804.85L1030.86 1804.83Z" stroke="white" stroke-miterlimit="10"/>
<path d="M1128.48 1594.5C1128.48 1594.5 1128.47 1594.63 1128.41 1594.75C1128.44 1594.62 1128.46 1594.54 1128.48 1594.5Z" stroke="white" stroke-miterlimit="10"/>
<path d="M1030.88 1804.83V1804.85H1030.87L1030.88 1804.83Z" stroke="white" stroke-miterlimit="10"/>
<path d="M814.9 585.161C823.996 585.161 831.37 577.787 831.37 568.691C831.37 559.595 823.996 552.221 814.9 552.221C805.804 552.221 798.43 559.595 798.43 568.691C798.43 577.787 805.804 585.161 814.9 585.161Z" fill="#FFCD71"/>
<path d="M435.169 1100.34V1237.76C433.779 1237.82 432.359 1237.68 430.969 1237.75C413.189 1238.64 395.419 1241.7 378.919 1248.45C368.999 1252.51 359.719 1257.91 351.319 1264.54H346.719C343.419 1262.11 340.169 1259.58 336.689 1257.39C314.949 1243.76 288.369 1238.12 262.859 1237.76V1100.34C293.139 1102.47 325.089 1111.29 346.719 1133.48H351.319C369.809 1114.46 397.179 1104.72 423.169 1101.46C427.159 1100.96 431.179 1100.75 435.169 1100.34Z" fill="#FFCD71"/>
<path d="M1030.86 2049.04C891.72 2049.04 756.73 2021.96 629.64 1968.54C506.89 1916.95 396.64 1843.09 301.98 1749.01C207.3 1654.93 132.97 1545.36 81.04 1423.36C27.27 1297.02 0 1162.83 0 1024.52C0 886.21 27.26 752.01 81.04 625.68C132.97 503.67 207.31 394.11 301.98 300.03C396.65 205.96 506.89 132.1 629.64 80.5C756.73 27.08 891.72 0 1030.86 0C1170 0 1304.99 27.08 1432.08 80.5C1554.83 132.09 1665.08 205.95 1759.74 300.03C1854.42 394.11 1928.75 503.68 1980.68 625.68C2034.45 752.02 2061.72 886.21 2061.72 1024.52C2061.72 1162.83 2034.45 1297.03 1980.68 1423.36C1928.75 1545.37 1854.41 1654.93 1759.74 1749.01C1665.07 1843.08 1554.83 1916.94 1432.08 1968.54C1304.99 2021.96 1170 2049.04 1030.86 2049.04ZM1030.86 42.85C897.45 42.85 768.05 68.81 646.25 120C528.6 169.45 422.94 240.24 332.19 330.42C241.46 420.58 170.23 525.57 120.47 642.46C68.97 763.46 42.86 892 42.86 1024.52C42.86 1157.04 68.97 1285.58 120.47 1406.58C170.22 1523.47 241.45 1628.45 332.19 1718.62C422.93 1808.79 528.6 1879.59 646.25 1929.04C768.05 1980.24 897.46 2006.19 1030.86 2006.19C1164.26 2006.19 1293.67 1980.23 1415.47 1929.04C1533.12 1879.59 1638.79 1808.8 1729.53 1718.62C1820.26 1628.46 1891.49 1523.47 1941.25 1406.58C1992.75 1285.58 2018.86 1157.04 2018.86 1024.52C2018.86 892 1992.75 763.46 1941.25 642.46C1891.5 525.57 1820.27 420.59 1729.53 330.42C1638.79 240.25 1533.12 169.45 1415.47 120C1293.67 68.8 1164.26 42.85 1030.86 42.85Z" fill="#FFCD71"/>
<path d="M1648.76 1101.54C1667 1100.69 1674.15 1116.35 1694.61 1112.63C1716.33 1108.68 1729.38 1094.32 1752.12 1110.29C1782.33 1131.51 1778.46 1176.52 1766.35 1207.79C1759.18 1226.3 1737.95 1262.23 1717.27 1263.92C1709.04 1264.59 1702.63 1260.38 1695.03 1258.94C1675.37 1255.22 1664.02 1274.12 1643.7 1257.8C1619.03 1237.98 1600.96 1189.74 1602.69 1157.35C1604.12 1130.57 1621.67 1102.81 1648.75 1101.55L1648.76 1101.54Z" fill="#FFCD71"/>
<path d="M1745.14 1064.92C1745.7 1065.53 1741.03 1071.71 1740.33 1072.56C1729.13 1086.24 1715.22 1094.15 1697.73 1092.78C1696.59 1092.69 1691.96 1092.02 1691.44 1091.2C1691.01 1076.75 1701.54 1067.89 1713.77 1064.71C1724.23 1062 1734.68 1062.84 1745.14 1064.91V1064.92Z" fill="#FFCD71"/>
<path d="M1691.27 1109.27L1686.89 1109.21C1683.41 1096.22 1676.21 1084.42 1666.35 1075.91C1663.24 1073.23 1659.77 1071.2 1656.59 1068.64L1665.18 1060.09C1665.66 1059.75 1665.9 1060.07 1666.28 1060.25C1667.31 1060.72 1670.5 1063.58 1671.51 1064.53C1683.4 1075.59 1691.41 1092.25 1691.26 1109.27H1691.27Z" fill="#FFCD71"/>
<path d="M413.168 1323.11H385.168V1528.48H413.168V1323.11Z" fill="#FFCD71"/>
<path d="M498.219 1280.41H470.219V1472.99H498.219V1280.41Z" fill="#FFCD71"/>
<path d="M1529.11 1166.44H1501.11V1394.38H1529.11V1166.44Z" fill="#FFCD71"/>
</svg>
