<svg width="1495" height="356" viewBox="0 0 1495 356" fill="none" xmlns="http://www.w3.org/2000/svg">
<path d="M244.398 0.299805V355.7H190.398V54.2998H189.998C115.498 54.2998 54.8984 114.9 54.8984 189.5V355.8H0.898438V189.5C0.898438 85.1998 85.6984 0.39978 189.998 0.39978H244.398V0.299805ZM98.6985 173.8C98.6985 159 110.698 147 125.498 147C140.298 147 152.298 159 152.298 173.8C152.298 188.6 140.298 200.6 125.498 200.6C110.698 200.6 98.6985 188.6 98.6985 173.8Z" fill="#FFC000"/>
<path d="M496.198 124V178H414.698C382.298 178 355.898 204.4 355.898 236.8V355.8H301.898V236.8C301.898 174.6 352.498 124 414.698 124H496.198Z" fill="#FFC000"/>
<path d="M647.798 301.8H681.898V355.8H647.798C582.798 355.8 529.898 302.9 529.898 237.9V0.400391H583.898V237.9C583.898 273.2 612.598 301.8 647.798 301.8ZM628.398 150.9C628.398 136.1 640.398 124.2 655.198 124.2C669.998 124.2 681.998 136.2 681.998 150.9C681.998 165.6 669.998 177.7 655.198 177.7C640.398 177.7 628.398 165.7 628.398 150.9Z" fill="#FFC000"/>
<path d="M968.1 243.8V355.7H914.1V243.8C914.1 207.5 884.6 178 848.3 178C812 178 782.5 207.5 782.5 243.8V355.7H728.5V0.299805H782.5V143.8C801.4 131.3 824 124 848.3 124C914.4 124 968.1 177.7 968.1 243.8Z" fill="#FFC000"/>
<path d="M1253.4 124V236C1253.4 302.1 1199.6 355.8 1133.6 355.8C1067.6 355.8 1013.8 302 1013.8 236V124H1067.8V236C1067.8 272.3 1097.3 301.8 1133.6 301.8C1169.9 301.8 1199.4 272.3 1199.4 236V124H1253.4Z" fill="#FFC000"/>
<path d="M1494.4 124V178H1412.9C1380.5 178 1354.1 204.4 1354.1 236.8V355.8H1300.1V236.8C1300.1 174.6 1350.7 124 1412.9 124H1494.4Z" fill="#FFC000"/>
</svg>
