<svg width="1128" height="447" viewBox="0 0 1128 447" fill="none" xmlns="http://www.w3.org/2000/svg">
<g clip-path="url(#clip0_28_93)">
<path d="M304.2 224.501C304.2 347.901 203.8 446.501 80.3 446.501H0.0999756V378.801H80.3C166.4 378.801 236.5 310.701 236.5 224.501C236.5 138.301 166.5 68.3016 80.3 68.3016H0V0.601562H80.3C203.8 0.601562 304.2 101.001 304.2 224.501ZM0 218.301C0 199.801 15 184.701 33.6 184.701C52.2 184.701 67.2 199.701 67.2 218.301C67.2 236.901 52.2 251.901 33.6 251.901C15 251.901 0 236.901 0 218.301Z" fill="#0597B1"/>
<path d="M499.5 288.701L462.8 377.201L307.1 0.601562H380.5L499.6 288.601L499.5 288.701ZM737.5 0.601562L679.2 141.401H679L552.2 446.501H491.6L485.2 431.001L521.9 342.501C521.9 342.601 608.6 134.001 608.6 134.001L664.1 0.601562H737.5ZM488.7 34.2016C488.7 15.7016 503.7 0.601562 522.3 0.601562C540.9 0.601562 555.9 15.6016 555.9 34.2016C555.9 52.8016 540.9 67.8016 522.3 67.8016C503.7 67.8016 488.7 52.8016 488.7 34.2016Z" fill="#0597B1"/>
<path d="M1086.6 223.199C1112 246.699 1128 280.299 1128 317.799C1128 387.199 1073.2 443.699 1004.8 446.199H902.8C834.5 443.699 779.6 387.199 779.6 317.799C779.6 248.399 795.6 246.799 821 223.199C795.6 199.699 779.6 166.099 779.6 128.599C779.6 59.1992 834.4 2.69922 902.8 0.199219H1004.8C1073.1 2.69922 1128 59.1992 1128 128.599C1128 197.999 1111.9 199.599 1086.6 223.199ZM974.5 257.299V189.099H1000.3C1033.4 189.099 1060.3 161.999 1060.3 128.599C1060.3 95.1992 1033.4 68.0992 1000.3 68.0992H907.5C874.4 68.0992 847.5 95.1992 847.5 128.599C847.5 161.999 874.4 189.099 907.5 189.099H933.3V257.299H907.5C874.4 257.299 847.5 284.399 847.5 317.799C847.5 351.199 874.4 378.299 907.5 378.299H1000.3C1033.4 378.299 1060.3 351.199 1060.3 317.799C1060.3 284.399 1033.4 257.299 1000.3 257.299H974.5ZM953.9 161.999C935.4 161.999 920.3 146.899 920.3 128.299C920.3 109.699 935.3 94.5992 953.9 94.5992C972.5 94.5992 987.5 109.699 987.5 128.299C987.5 146.899 972.5 161.999 953.9 161.999ZM920.3 317.199C920.3 298.599 935.3 283.499 953.9 283.499C972.5 283.499 987.5 298.599 987.5 317.199C987.5 335.799 972.5 350.899 953.9 350.899C935.3 350.899 920.3 335.799 920.3 317.199Z" fill="#0597B1"/>
</g>
<defs>
<clipPath id="clip0_28_93">
<rect width="1128" height="447" fill="white"/>
</clipPath>
</defs>
</svg>
