<svg width="23" height="23" viewBox="0 0 23 23" fill="none" xmlns="http://www.w3.org/2000/svg">
<path d="M3.44574 0.679225L3.44629 2.17308C3.44636 2.3532 3.51795 2.52592 3.64531 2.65329C3.77267 2.78065 3.94539 2.85223 4.12551 2.85231L18.1305 2.85204L0.198747 20.784C0.0714363 20.9115 -5.1168e-05 21.0843 2.74785e-08 21.2644C5.1223e-05 21.4446 0.0716366 21.6173 0.199019 21.7447L1.25552 22.8012C1.5206 23.0663 1.95085 23.0663 2.2162 22.801L20.148 4.86896L20.1475 18.875C20.1475 19.0551 20.2191 19.2278 20.3465 19.3552C20.4738 19.4825 20.6466 19.5541 20.8267 19.5542H22.3205C22.5006 19.5541 22.6734 19.4825 22.8007 19.3552C22.9281 19.2278 22.9997 19.0551 22.9997 18.875L23 0.679229C22.9999 0.49911 22.9283 0.32639 22.801 0.199026C22.6736 0.0716628 22.5009 7.84416e-05 22.3208 4.94265e-06L4.12496 0C3.94484 7.3499e-05 3.77212 0.0716582 3.64476 0.199022C3.5174 0.326385 3.44582 0.499106 3.44574 0.679225Z" fill="white"/>
</svg>
