<svg width="2339" height="356" viewBox="0 0 2339 356" fill="none" xmlns="http://www.w3.org/2000/svg">
<path d="M219.4 0.101562V54.1016H177.8C109.5 54.1016 54 109.602 54 177.802C54 246.002 109.5 301.501 177.8 301.501H219.4V355.501H177.8C79.8 355.501 0 275.802 0 177.802C0 79.8015 79.8 0.101562 177.8 0.101562H219.4ZM88.9 200.401V147.001H219.4V200.401H88.9Z" fill="#FFC000"/>
<path d="M508.602 178.6C508.602 277 428.502 355.5 330.102 355.5H266.202V301.5H330.102C398.702 301.5 454.602 247.2 454.602 178.5C454.602 109.8 398.802 54 330.102 54H266.102V0H330.102C428.502 0 508.602 80.1 508.602 178.4V178.6ZM266.102 173.6C266.102 158.8 278.102 146.8 292.902 146.8C307.702 146.8 319.702 158.8 319.702 173.6C319.702 188.4 307.702 200.4 292.902 200.4C278.102 200.4 266.102 188.4 266.102 173.6Z" fill="#FFC000"/>
<path d="M823.398 0.801514V220.802C823.398 295.202 762.898 355.802 688.398 355.802C613.898 355.802 553.398 295.302 553.398 220.802V0.101562H607.398V220.802C607.398 265.502 643.698 301.802 688.398 301.802C733.098 301.802 769.398 265.502 769.398 220.802V0.801514H823.398ZM661.698 172.501C661.698 157.701 673.698 145.702 688.498 145.702C703.298 145.702 715.198 157.701 715.198 172.501C715.198 187.301 703.198 199.302 688.498 199.302C673.798 199.302 661.698 187.301 661.698 172.501Z" fill="#FFC000"/>
<path d="M1222.5 177.802C1222.5 275.802 1143.1 355.501 1045.4 355.501C947.701 355.501 868.301 275.802 868.301 177.802C868.301 79.8015 947.801 0.101562 1045.4 0.101562C1143 0.101562 1222.5 79.8015 1222.5 177.802ZM1168.5 177.802C1168.5 109.702 1113.3 54.3015 1045.4 54.3015C977.501 54.3015 922.301 109.702 922.301 177.802C922.301 245.902 977.501 301.401 1045.4 301.401C1113.3 301.401 1168.5 246.002 1168.5 177.802ZM1015.3 172.901C1015.3 158.101 1027.3 146.102 1042 146.102C1056.7 146.102 1068.8 158.101 1068.8 172.901C1068.8 187.701 1056.8 199.702 1042 199.702C1027.2 199.702 1015.3 187.701 1015.3 172.901Z" fill="#A6A6A6"/>
<path d="M1501.9 109.301C1501.9 169.501 1453.1 218.501 1393.2 218.501H1359.8V164.301H1393.2C1423.4 164.301 1447.9 139.701 1447.9 109.401C1447.9 79.1008 1423.4 54.2008 1393.2 54.2008H1326.9V355.601H1272.9V0.300781H1393.2C1453.1 0.300781 1501.9 49.3008 1501.9 109.401V109.301Z" fill="#A6A6A6"/>
<path d="M1758.3 251.501C1758 308.901 1711.3 355.602 1654.1 355.602H1533.5V301.401H1654.1C1681.6 301.401 1704.2 278.902 1704.3 251.302C1704.3 237.802 1699.2 225.101 1689.7 215.501C1680.2 205.901 1667.6 200.602 1654.1 200.602H1630.9C1583.4 200.602 1543.5 167.002 1533.5 122.302C1530.1 110.702 1531.7 89.3015 1531.7 89.3015C1531.8 88.1015 1532.1 86.9015 1532.2 85.7015H1587.5C1587.1 86.9015 1586.7 88.1015 1586.5 89.3015C1582.7 109.602 1590.8 122.302 1590.8 122.302C1598.6 136.602 1613.6 146.401 1630.9 146.401H1654.1C1682 146.401 1708.3 157.302 1728 177.202C1747.7 197.102 1758.5 223.401 1758.3 251.401V251.501ZM1745.2 0.101563V54.4015H1542.8C1547.4 45.8015 1553.1 36.7016 1560.1 29.6016C1578.4 11.2016 1602.5 0.901538 1628.2 0.201538C1628.2 0.101538 1745.1 0.101563 1745.1 0.101563H1745.2Z" fill="#A6A6A6"/>
<path d="M2043.4 0.101562V355.501H1989.4V54.1016H1989C1914.5 54.1016 1853.9 114.702 1853.9 189.302V355.602H1799.9V189.302C1799.9 85.0015 1884.7 0.201538 1989 0.201538H2043.4V0.101562ZM1897.7 173.602C1897.7 158.802 1909.7 146.802 1924.5 146.802C1939.3 146.802 1951.3 158.802 1951.3 173.602C1951.3 188.402 1939.3 200.401 1924.5 200.401C1909.7 200.401 1897.7 188.402 1897.7 173.602Z" fill="#343434"/>
<path d="M2110.7 355.501V0.101562H2164.7V355.501H2110.7Z" fill="#343434"/>
<path d="M2252 0.502319V11.7024H2230.2V68.5023H2216.7V11.7024H2194.9V0.502319H2251.9H2252ZM2325.5 68.5023L2323 28.5023C2322.8 23.3023 2322.8 16.7023 2322.5 9.50232H2321.7C2319.9 15.5023 2317.9 23.5024 2315.9 29.7024L2303.7 67.5023H2289.7L2277.5 28.7024C2276.3 23.5024 2274.3 15.5023 2272.7 9.50232H2271.9C2271.9 15.7023 2271.7 22.3023 2271.4 28.5023L2268.9 68.5023H2255.9L2260.9 0.502319H2281.1L2292.9 33.7024C2294.4 38.9024 2295.7 43.9023 2297.4 50.9023H2297.6C2299.4 44.7023 2300.8 38.9023 2302.4 33.9023L2314.2 0.402344H2333.7L2338.9 68.4023H2325.4L2325.5 68.5023Z" fill="#343434"/>
</svg>
